<?xml version="1.0" standalone="no"?>
<!DOCTYPE svg PUBLIC "-//W3C//DTD SVG 20010904//EN"
 "http://www.w3.org/TR/2001/REC-SVG-20010904/DTD/svg10.dtd">
<svg version="1.0" xmlns="http://www.w3.org/2000/svg"
 width="400.000000pt" height="400.000000pt" viewBox="0 0 400.000000 400.000000"
 preserveAspectRatio="xMidYMid meet">
<metadata>
Created by potrace 1.14, written by Peter Selinger 2001-2017
</metadata>
<g transform="translate(0.000000,400.000000) scale(0.100000,-0.100000)"
fill="#000000" stroke="none">
<path d="M8 3993 c7 -3 16 -2 19 1 4 3 -2 6 -13 5 -11 0 -14 -3 -6 -6z"/>
<path d="M610 3969 c-47 -16 -182 -55 -300 -85 -118 -30 -236 -62 -262 -70
-46 -15 -48 -17 -48 -55 0 -38 0 -38 28 -27 39 17 48 26 18 21 -14 -3 -26 -3
-26 0 0 2 45 17 99 32 91 26 102 27 123 13 19 -13 36 -15 79 -9 3 1 4 12 2 25
-6 27 -9 26 237 91 74 19 170 45 212 57 63 18 82 19 103 10 14 -7 39 -12 55
-12 23 0 27 3 23 20 -6 22 -28 27 -37 8 -5 -10 -7 -10 -12 0 -4 8 -35 12 -107
11 -86 0 -115 -5 -187 -30z m-325 -149 c-3 -5 -10 -10 -16 -10 -5 0 -9 5 -9
10 0 6 7 10 16 10 8 0 12 -4 9 -10z"/>
<path d="M1081 3987 c-6 -8 -10 -57 -10 -123 1 -108 1 -109 15 -64 8 26 11 61
7 84 -5 35 -4 39 12 32 18 -7 18 -6 1 13 -12 13 -15 27 -11 41 6 20 8 20 25 5
10 -9 27 -15 37 -12 14 4 13 5 -5 6 -12 0 -25 8 -28 16 -8 19 -28 19 -43 2z"/>
<path d="M1180 3983 c0 -16 2 -16 11 -3 8 11 12 12 16 3 2 -7 11 -13 19 -13 8
0 17 -7 21 -15 3 -9 26 -30 51 -47 83 -57 82 -55 82 -134 l0 -71 67 15 c44 10
71 12 81 5 10 -6 31 -6 59 1 42 9 46 8 75 -22 18 -17 29 -35 25 -38 -4 -4 -17
3 -28 15 -17 18 -28 22 -53 17 -36 -7 -68 -13 -79 -15 -5 0 -7 -24 -6 -51 3
-49 -10 -78 -29 -66 -5 3 -7 16 -5 28 3 18 -4 28 -34 45 -36 21 -37 23 -15 29
36 10 25 20 -20 18 -59 -2 -58 -2 -58 -23 0 -11 -4 -23 -10 -26 -5 -3 -10 -20
-10 -36 0 -19 4 -28 11 -23 8 4 8 1 1 -13 -6 -11 -9 -38 -7 -61 2 -23 0 -55
-5 -71 -11 -40 4 -63 24 -36 9 11 16 27 16 35 1 11 6 8 17 -7 18 -26 43 -30
43 -8 0 8 8 15 18 16 11 1 9 4 -8 9 l-25 8 27 1 c14 1 28 6 30 13 8 24 28 -5
28 -42 0 -21 6 -41 13 -43 7 -3 5 -6 -5 -6 -13 -1 -18 -9 -18 -27 0 -26 1 -26
48 -20 29 5 54 15 65 28 9 11 17 16 17 11 0 -5 -4 -13 -10 -19 -5 -5 -11 -20
-13 -33 -4 -24 -58 -51 -88 -44 -31 8 -97 47 -108 64 -9 16 -8 19 9 19 11 0
20 5 20 11 0 6 -8 8 -19 4 -11 -3 -22 -1 -26 5 -7 11 -44 -4 -56 -23 -14 -21
-36 1 -31 32 4 27 1 31 -19 31 -45 0 -69 -12 -69 -32 0 -16 -5 -19 -22 -14
-13 3 -29 6 -37 6 -12 0 -12 2 1 13 9 6 19 29 22 50 l7 37 -40 0 c-22 0 -51
-4 -66 -10 -23 -9 -25 -15 -23 -52 l3 -42 -47 -7 c-26 -4 -73 -17 -105 -29
l-58 -21 -113 57 c-61 32 -110 59 -108 61 2 3 14 0 25 -7 25 -13 25 -12 6 33
-8 20 -15 39 -15 42 0 12 32 2 109 -35 46 -22 85 -39 87 -37 8 8 -299 147
-323 147 -2 0 5 -13 16 -29 25 -35 27 -57 5 -65 -8 -3 -13 -2 -10 2 7 11 -82
54 -95 46 -5 -3 -8 0 -7 7 2 6 -3 14 -11 17 -8 3 -11 0 -7 -7 5 -7 1 -9 -8 -5
-9 3 -13 10 -10 15 3 5 -2 6 -11 3 -10 -4 -15 -2 -13 6 2 7 -3 15 -11 18 -8 3
-11 0 -7 -7 5 -7 1 -9 -10 -4 -14 5 -13 8 7 19 35 19 104 28 126 15 13 -6 31
-7 49 -1 l29 8 -33 1 c-44 1 -31 21 14 21 19 0 42 4 52 10 9 5 74 23 144 38
l128 29 40 -24 c31 -19 40 -21 40 -9 0 8 -9 18 -20 21 -11 3 -20 11 -20 16 0
6 8 6 20 -1 18 -10 20 -8 20 28 l0 39 -117 -28 c-65 -16 -171 -40 -236 -54
-66 -14 -128 -30 -139 -36 -16 -8 -23 -7 -34 8 -11 14 -13 14 -8 2 4 -12 -3
-18 -23 -22 -15 -3 -75 -17 -133 -31 -67 -16 -99 -20 -87 -11 14 10 15 14 5
18 -7 3 3 6 22 7 19 0 51 1 70 1 l35 1 -40 16 -40 17 55 11 55 12 -44 1 c-40
1 -43 2 -26 14 23 18 4 32 -31 23 -23 -6 -24 -8 -9 -23 13 -13 14 -18 3 -24
-17 -11 -55 -11 -62 0 -4 5 3 7 14 4 20 -5 28 11 11 22 -6 3 -48 -2 -95 -11
l-86 -17 0 -80 0 -79 28 7 c15 4 79 18 142 30 102 21 117 22 142 9 19 -10 28
-23 29 -42 2 -23 2 -24 6 -4 2 12 6 22 9 22 2 0 54 -25 114 -55 l110 -55 -1
-47 c-1 -27 3 -67 9 -90 7 -28 6 -45 -1 -52 -8 -8 -7 -11 3 -11 7 0 0 -11 -16
-25 -16 -14 -38 -25 -49 -25 -35 0 -148 72 -156 100 -4 16 -7 19 -8 8 -2 -27
-22 -22 -151 33 -67 28 -124 48 -131 43 -8 -4 -9 -3 -5 4 4 7 5 12 3 12 -3 0
-20 6 -39 14 -31 14 -34 13 -35 -4 -1 -14 13 -25 53 -41 29 -12 52 -24 50 -26
-2 -3 -27 0 -55 5 l-51 9 0 -580 c0 -319 2 -578 4 -576 7 7 15 80 17 144 l2
60 11 -80 12 -80 18 39 c9 21 15 45 12 53 -3 8 -2 12 3 9 5 -3 18 13 30 37
l21 42 1 -45 c0 -25 1 -64 2 -88 2 -36 -1 -42 -18 -43 -16 0 -17 -2 -4 -7 13
-6 9 -14 -20 -44 -34 -35 -38 -37 -62 -24 l-26 13 -2 -55 c-2 -44 2 -58 18
-73 17 -16 19 -23 9 -44 -6 -14 -15 -25 -20 -25 -4 0 -8 -443 -8 -985 l0 -985
708 0 c389 0 713 4 720 8 8 5 10 16 6 27 -5 13 -4 16 4 11 7 -4 12 -15 12 -25
0 -13 8 -18 31 -19 30 -1 31 0 27 39 -2 22 1 39 7 39 5 0 3 5 -5 10 -9 6 -10
10 -3 10 6 0 15 -5 18 -10 4 -6 11 -7 17 -4 6 4 6 -1 -1 -14 -6 -11 -11 -33
-11 -49 l1 -28 14 25 c14 25 14 25 15 3 0 -27 17 -31 23 -5 4 16 5 16 6 0 0
-10 8 -18 16 -18 11 0 14 7 10 28 l-5 27 11 -27 c10 -27 14 -28 79 -28 l69 0
7 56 c14 117 -26 232 -102 289 -23 16 -50 44 -61 60 -55 83 -58 89 -43 80 43
-26 143 -135 169 -185 35 -66 71 -195 71 -257 l0 -43 1095 0 1095 0 0 740 c0
407 -2 740 -4 740 -2 0 -20 -7 -39 -15 -20 -8 -41 -15 -46 -15 -12 0 -24 174
-24 365 0 372 5 719 10 708 6 -16 33 -17 33 -2 0 6 -9 13 -20 16 -21 6 -27 28
-9 38 6 4 9 30 8 59 -1 29 0 57 4 63 3 5 5 40 3 76 -3 57 -1 66 15 70 11 3 19
1 19 -4 0 -5 6 -9 13 -9 8 0 19 -10 25 -22 25 -53 10 14 -18 80 -16 39 -30 78
-30 86 0 9 -6 16 -12 16 -9 0 -12 15 -9 52 3 47 4 50 15 29 10 -18 12 4 10
121 -2 90 0 134 5 118 5 -14 9 -48 10 -75 1 -29 10 -68 21 -90 l20 -39 0 62
c0 39 -9 89 -25 136 -22 66 -32 111 -34 154 -1 10 -11 12 -41 7 -27 -5 -40 -3
-40 4 0 11 -43 6 -65 -8 -5 -3 -19 -7 -30 -8 -11 0 -30 -4 -42 -8 -22 -7 -23
-5 -23 43 0 73 -10 112 -26 105 -9 -3 -14 2 -14 17 0 19 -4 21 -25 16 -35 -8
-64 -14 -107 -21 l-38 -6 0 -79 0 -80 48 6 c119 16 116 14 122 74 4 43 7 51
17 39 8 -10 9 -26 4 -50 -4 -19 -6 -44 -5 -56 3 -15 -3 -23 -22 -27 -14 -4
-31 -3 -37 2 -13 10 -127 -8 -127 -20 0 -7 26 -4 90 8 16 4 21 2 15 -4 -14
-13 -189 -34 -219 -26 -13 3 -32 1 -43 -4 -10 -5 -35 -12 -55 -16 l-38 -7 -2
78 c0 43 -3 62 -5 43 -10 -106 -14 -120 -34 -120 -10 0 -19 -5 -19 -10 0 -6
-15 -10 -32 -10 -18 1 -59 -5 -91 -14 -32 -8 -88 -18 -124 -22 -55 -5 -64 -4
-58 7 6 9 2 8 -11 -2 -11 -9 -63 -24 -118 -33 -55 -10 -103 -19 -108 -22 -4
-3 -5 2 -2 10 4 10 25 18 55 22 l49 7 2 78 c0 44 1 85 2 92 1 6 -6 12 -14 12
-8 0 -21 4 -29 9 -9 6 -12 5 -8 -1 10 -16 -22 -73 -40 -73 -15 0 -15 2 0 18
20 22 7 47 -22 39 -31 -8 -36 11 -7 25 14 6 26 15 26 19 0 4 18 10 39 14 55 9
67 26 52 74 -6 21 -11 48 -11 61 0 15 -4 20 -14 17 -10 -4 -13 -1 -9 9 3 10 0
12 -10 9 -8 -4 -14 -14 -13 -23 0 -9 -7 -18 -17 -20 -15 -3 -17 1 -11 22 4 16
2 26 -5 27 -6 1 -15 2 -21 3 -19 2 -11 21 10 26 12 3 21 10 20 15 -1 6 13 14
32 19 18 5 34 10 36 12 2 1 -8 14 -22 28 -23 25 -25 26 -35 9 -8 -14 -10 -5
-11 42 0 68 -6 80 -36 82 -20 1 -22 -5 -27 -84 -4 -49 -2 -94 3 -104 7 -12 7
-20 0 -24 -6 -4 -10 -12 -9 -18 3 -29 -4 -119 -8 -97 -8 42 -15 46 -105 50
-37 2 -16 27 32 39 50 13 68 31 30 31 -24 0 -36 23 -39 74 -3 53 -23 88 -83
146 -48 46 -68 59 -68 44 0 -14 65 -79 79 -79 13 0 17 -14 19 -67 2 -43 -1
-68 -8 -68 -5 0 -10 6 -10 13 0 7 -6 21 -13 31 -10 14 -18 15 -38 7 -24 -9
-26 -7 -21 15 3 19 0 24 -17 24 -11 0 -21 4 -21 8 0 8 -149 81 -227 111 -20 8
-72 12 -151 9 -106 -3 -124 -6 -151 -25 -33 -25 -46 -29 -35 -12 4 7 0 9 -12
6 -11 -4 -73 -18 -139 -33 -66 -14 -129 -31 -140 -37 -19 -10 -19 -10 0 -18
11 -4 16 -8 10 -8 -5 -1 -3 -6 5 -11 11 -8 7 -9 -15 -4 -39 9 -47 13 -40 25 4
5 -2 9 -12 9 -20 0 -36 11 -110 73 -35 29 -53 37 -84 37 -31 0 -39 -4 -39 -17z
m914 -8 c8 -8 19 -15 25 -15 6 0 11 -4 11 -9 0 -5 -20 -1 -45 8 -25 9 -45 19
-45 23 0 14 38 9 54 -7z m-798 -36 c28 -30 28 -31 4 -19 -25 13 -40 28 -40 43
0 12 5 8 36 -24z m712 25 c18 -5 20 -9 11 -20 -6 -8 -23 -14 -38 -14 -18 0
-22 -3 -13 -9 23 -14 -7 -18 -78 -11 -45 5 -71 3 -85 -6 -26 -16 -110 -28
-127 -18 -9 6 -2 11 22 17 19 4 53 13 75 18 22 6 59 12 81 13 23 1 48 7 55 13
8 6 25 13 39 16 14 2 27 5 30 6 3 0 15 -2 28 -5z m157 -34 c3 -6 -1 -7 -9 -4
-18 7 -21 14 -7 14 6 0 13 -4 16 -10z m-138 -26 c-3 -3 -12 -4 -19 -1 -8 3 -5
6 6 6 11 1 17 -2 13 -5z m-643 -30 c5 -14 4 -15 -9 -4 -17 14 -19 20 -6 20 5
0 12 -7 15 -16z m176 7 c0 -11 -49 -21 -55 -11 -2 4 -2 10 2 14 10 9 53 7 53
-3z m89 -28 c76 -73 93 -85 101 -73 4 7 30 14 56 16 27 1 39 0 27 -2 -23 -5
-27 -13 -24 -45 1 -10 -10 -21 -29 -27 -17 -6 -30 -7 -30 -2 0 5 -16 24 -37
42 -20 18 -43 40 -52 49 -9 9 -31 24 -48 35 -18 10 -33 22 -33 26 0 18 42 6
69 -19z m457 -8 c-8 -9 -13 -22 -9 -31 6 -16 -22 -43 -46 -44 -8 0 -4 8 10 21
l24 20 -22 -6 c-19 -5 -23 -2 -23 19 0 20 6 25 33 29 17 2 36 5 40 5 5 1 2 -5
-7 -13z m105 -28 c-17 -17 -24 -1 -10 25 12 21 14 21 17 4 2 -10 -1 -23 -7
-29z m-229 6 c-16 -3 -25 -14 -29 -34 -3 -16 -14 -34 -25 -40 -27 -15 -36 -2
-12 17 16 13 17 15 2 10 -14 -4 -18 0 -18 19 0 24 18 32 80 32 23 0 24 0 2 -4z
m-352 -80 c0 -2 -8 1 -17 6 -28 17 -53 38 -53 45 0 4 16 -5 35 -20 19 -14 35
-28 35 -31z m680 -36 c0 -40 -5 -79 -10 -87 -7 -10 -10 7 -10 56 0 55 -4 73
-15 78 -20 7 -19 24 3 29 29 6 32 -1 32 -76z m-198 51 c-7 -7 -12 -8 -12 -2 0
14 12 26 19 19 2 -3 -1 -11 -7 -17z m-142 -23 c-7 -8 -17 -12 -22 -9 -6 4 -5
10 3 15 22 14 33 10 19 -6z m109 -17 c6 -16 4 -28 -5 -39 -8 -8 -14 -30 -14
-48 0 -61 -17 -22 -19 44 -1 53 1 65 14 65 9 0 20 -10 24 -22z m367 -13 c-3
-8 -12 -15 -21 -15 -14 0 -14 3 2 24 18 24 30 18 19 -9z m-521 16 c-3 -5 -1
-12 5 -16 13 -8 13 -45 -1 -45 -5 0 -7 -4 -4 -10 3 -5 1 -10 -6 -10 -8 0 -10
-11 -6 -35 3 -19 2 -35 -4 -35 -5 0 -9 -9 -9 -21 0 -25 23 -20 29 6 4 23 26
46 35 38 14 -15 5 -51 -14 -56 -11 -3 -20 -9 -19 -14 4 -20 -2 -27 -12 -13 -8
11 -12 12 -16 3 -10 -26 -33 -14 -33 17 0 19 -5 30 -14 30 -17 0 -26 52 -15
94 6 26 7 21 8 -26 1 -50 4 -58 20 -58 16 0 19 10 23 71 4 45 11 75 19 80 18
11 22 11 14 0z m-100 -11 c-3 -5 -11 -10 -16 -10 -6 0 -7 5 -4 10 3 6 11 10
16 10 6 0 7 -4 4 -10z m312 -52 c-2 -13 -4 -5 -4 17 -1 22 1 32 4 23 2 -10 2
-28 0 -40z m-144 -67 c-10 -15 -17 42 -12 89 1 14 5 0 8 -30 3 -30 5 -57 4
-59z m-204 85 c10 -11 9 -21 -4 -46 -11 -22 -14 -41 -9 -63 4 -18 7 -38 5 -44
-2 -16 35 -17 45 -2 3 6 0 15 -7 20 -11 7 -10 9 5 9 16 0 17 -6 12 -46 -6 -52
-13 -65 -25 -45 -7 11 -9 11 -13 0 -3 -10 -8 -7 -17 9 -6 12 -18 22 -26 22
-13 0 -20 28 -17 61 1 3 -12 3 -29 1 -21 -3 -29 0 -29 11 0 9 4 18 8 21 5 3 7
19 4 36 -2 17 0 30 7 30 6 0 8 -6 5 -14 -5 -13 24 -51 33 -43 4 5 11 48 12 80
1 21 24 22 40 3z m652 -11 c0 -5 -12 -11 -26 -13 -14 -2 -25 -8 -25 -13 0 -5
-4 -9 -10 -9 -14 0 -12 24 2 38 15 15 59 12 59 -3z m-181 -2 c0 -12 -43 -53
-57 -53 -7 0 -13 -8 -14 -17 -1 -12 -4 -9 -9 7 -6 20 -2 29 19 47 25 22 61 31
61 16z m-2021 -19 c9 -8 -45 -2 -64 6 -14 7 -8 8 20 3 22 -3 42 -7 44 -9z
m2111 12 c0 -2 -7 -6 -15 -10 -8 -3 -15 -1 -15 4 0 6 7 10 15 10 8 0 15 -2 15
-4z m-952 -47 c-3 -8 -7 -3 -11 10 -4 17 -3 21 5 13 5 -5 8 -16 6 -23z m1282
24 c0 -5 -4 -14 -9 -21 -7 -11 -9 -11 -14 1 -3 8 -3 18 0 21 9 8 23 7 23 -1z
m-1092 -43 c-7 -11 -16 -20 -21 -20 -4 0 -3 9 3 20 6 11 15 20 20 20 6 0 5 -9
-2 -20z m446 5 c3 -8 1 -15 -3 -15 -5 0 -11 7 -15 15 -3 8 -1 15 3 15 5 0 11
-7 15 -15z m353 9 c-3 -3 -12 -4 -19 -1 -8 3 -5 6 6 6 11 1 17 -2 13 -5z
m-2276 -21 c-18 -8 -41 -12 -50 -10 -9 3 -6 5 9 6 20 1 22 3 10 11 -11 7 -4 9
25 8 l40 -1 -34 -14z m2133 -9 c20 -8 21 -50 2 -86 -13 -24 -13 -28 0 -28 19
0 18 -16 -2 -24 -43 -17 -73 2 -36 23 9 6 13 11 7 11 -32 1 -36 17 -16 63 22
50 21 50 45 41z m-2207 -10 c-3 -3 -12 -4 -19 -1 -8 3 -5 6 6 6 11 1 17 -2 13
-5z m2044 -3 c-8 -5 -11 -16 -8 -24 4 -11 1 -14 -9 -10 -8 3 -14 -1 -14 -9 0
-8 -7 -23 -15 -34 -14 -18 -15 -16 -13 27 2 30 7 45 14 42 7 -2 15 0 19 6 3 6
14 11 23 11 14 0 14 -2 3 -9z m1499 -16 c0 -8 -5 -15 -11 -15 -5 0 -7 -4 -4
-10 4 -6 -1 -7 -11 -3 -11 4 -13 8 -6 11 7 2 12 10 12 18 0 8 5 14 10 14 6 0
10 -7 10 -15z m-1283 -27 c-3 -7 -5 -2 -5 12 0 14 2 19 5 13 2 -7 2 -19 0 -25z
m-664 -2 c-1 -11 6 -25 14 -31 14 -11 14 -12 -1 -18 -9 -4 -16 -2 -16 4 0 6
-4 8 -10 4 -15 -9 0 -35 21 -35 21 0 23 -8 10 -28 -5 -8 -17 -12 -27 -10 -15
2 -18 12 -17 47 1 39 0 43 -20 38 -12 -3 -33 -8 -46 -11 -32 -7 -42 0 -32 27
9 23 45 36 96 34 23 -2 30 -6 28 -21z m894 -8 c-3 -8 -6 -5 -6 6 -1 11 2 17 5
13 3 -3 4 -12 1 -19z m56 -23 c-10 -9 -13 -14 -5 -15 6 0 12 -4 12 -10 0 -5
-18 -10 -41 -10 -32 0 -40 -3 -35 -15 6 -16 -5 -20 -18 -8 -4 4 -15 8 -24 8
-33 0 -18 29 18 33 40 4 78 26 87 49 5 13 7 13 15 -2 7 -12 5 -20 -9 -30z
m-892 22 c-1 -4 -1 -19 -1 -34 0 -14 -3 -23 -7 -19 -11 10 -10 67 0 63 5 -1 8
-6 8 -10z m-1196 -15 c-3 -3 -11 0 -18 7 -9 10 -8 11 6 5 10 -3 15 -9 12 -12z
m925 8 c0 -5 -5 -10 -11 -10 -5 0 -7 5 -4 10 3 6 8 10 11 10 2 0 4 -4 4 -10z
m-40 -16 c0 -2 -7 -4 -15 -4 -8 0 -15 4 -15 10 0 5 7 7 15 4 8 -4 15 -8 15
-10z m1007 -6 c-3 -8 -6 -5 -6 6 -1 11 2 17 5 13 3 -3 4 -12 1 -19z m63 -9 c0
-5 -12 -9 -27 -9 -26 0 -26 1 -8 14 20 14 35 12 35 -5z m-698 -31 c-10 -22
-11 -21 -11 12 -1 26 2 31 11 22 8 -8 8 -17 0 -34z m558 11 c0 -10 5 -19 12
-19 6 0 9 -2 7 -5 -3 -2 -14 -2 -25 1 -16 4 -20 12 -16 30 5 27 22 23 22 -7z
m-258 -1 c-7 -7 -12 -8 -12 -2 0 14 12 26 19 19 2 -3 -1 -11 -7 -17z m-1437
-8 c3 -6 -1 -7 -9 -4 -18 7 -21 14 -7 14 6 0 13 -4 16 -10z m1277 -81 c-4 -76
-2 -91 9 -87 8 2 15 14 17 26 5 32 42 30 42 -2 0 -17 -5 -23 -17 -22 -12 1
-17 -5 -15 -16 3 -21 -9 -23 -26 -6 -9 9 -12 9 -12 0 0 -7 -7 -12 -15 -12 -14
0 -19 16 -16 52 2 12 -3 16 -13 12 -10 -4 -16 -18 -16 -39 0 -19 -4 -36 -10
-40 -5 -3 -7 -12 -3 -20 3 -8 0 -15 -6 -15 -6 0 -11 6 -11 13 0 9 -3 8 -9 -2
-7 -11 -10 -9 -16 8 -6 21 15 50 37 51 4 0 7 8 6 18 -3 39 2 85 10 78 4 -4 7
-13 7 -19 0 -7 7 -12 15 -12 11 0 15 14 17 55 1 30 2 58 2 63 1 4 7 7 15 7 11
0 12 -18 8 -91z m-52 65 c0 -8 -5 -12 -10 -9 -6 4 -8 11 -5 16 9 14 15 11 15
-7z m590 6 c0 -5 -7 -10 -16 -10 -8 0 -12 5 -9 10 3 6 10 10 16 10 5 0 9 -4 9
-10z m-370 -10 c0 -5 -2 -10 -4 -10 -3 0 -8 5 -11 10 -3 6 -1 10 4 10 6 0 11
-4 11 -10z m50 -15 c14 -19 14 -19 -2 -6 -10 7 -18 18 -18 24 0 6 1 8 3 6 1
-2 9 -13 17 -24z m280 16 c0 -12 -20 -25 -27 -18 -7 7 6 27 18 27 5 0 9 -4 9
-9z m-572 -36 c-3 -3 -13 -2 -22 1 -14 5 -15 9 -4 15 13 8 36 -6 26 -16z
m-238 6 c0 -5 -7 -14 -15 -21 -12 -10 -15 -10 -15 2 0 8 3 18 7 21 9 10 23 9
23 -2z m1090 -1 c0 -5 -5 -10 -11 -10 -5 0 -7 5 -4 10 3 6 8 10 11 10 2 0 4
-4 4 -10z m-887 -72 c20 -12 -6 -73 -32 -76 -21 -3 -23 -1 -17 23 7 26 5 27
-19 21 -17 -4 -24 -3 -20 4 3 5 15 10 26 10 16 0 19 7 20 48 l1 47 15 -35 c8
-19 20 -38 26 -42z m367 52 c0 -5 -4 -10 -9 -10 -5 0 -16 -3 -25 -6 -11 -4
-16 -1 -16 10 0 10 9 16 25 16 14 0 25 -4 25 -10z m-1383 -29 l57 -30 -49 -21
c-62 -27 -91 -24 -87 9 2 13 -2 28 -10 32 -10 7 -10 9 0 9 6 0 12 7 12 15 0
21 12 19 77 -14z m1233 10 c0 -9 -41 -23 -48 -16 -2 2 -2 7 1 12 7 11 47 14
47 4z m240 -6 c0 -3 -7 -17 -17 -31 -12 -19 -18 -22 -25 -12 -7 10 -12 9 -23
-6 -15 -19 -15 -19 -15 2 0 13 6 22 15 22 9 0 18 7 21 15 6 14 44 22 44 10z
m41 -44 c11 -11 20 -103 9 -96 -6 3 -10 20 -10 36 0 20 -9 38 -27 55 l-28 25
25 -7 c14 -3 28 -9 31 -13z m-201 -21 c-5 -9 -6 -21 -2 -25 4 -4 -4 -4 -18 0
-14 4 -22 4 -18 0 9 -10 -9 -45 -24 -45 -6 0 -8 10 -4 28 4 15 7 32 8 39 1 7
5 10 9 8 3 -3 12 2 19 10 17 20 42 8 30 -15z m-390 -53 c0 -23 -4 -36 -10 -32
-5 3 -10 19 -10 36 0 16 -4 29 -9 29 -5 0 -11 6 -14 14 -4 11 -1 11 19 2 19
-9 24 -19 24 -49z m827 41 c-3 -8 -6 -5 -6 6 -1 11 2 17 5 13 3 -3 4 -12 1
-19z m1213 3 c0 -19 -14 -34 -41 -44 -23 -8 -19 24 6 45 26 23 35 22 35 -1z
m50 -11 c0 -11 -5 -20 -11 -20 -5 0 -7 -4 -4 -10 3 -5 4 -10 0 -10 -8 0 -24
44 -18 53 9 15 33 6 33 -13z m-1400 -5 c0 -8 -4 -15 -10 -15 -5 0 -7 7 -4 15
4 8 8 15 10 15 2 0 4 -7 4 -15z m210 5 c0 -5 -12 -10 -27 -10 -22 0 -25 2 -13
10 20 13 40 13 40 0z m693 -25 c5 -16 10 -31 11 -32 1 -1 31 4 66 11 36 7 86
17 113 20 l47 7 0 -39 c0 -38 -1 -40 -39 -46 -22 -3 -43 -10 -46 -16 -3 -5 -6
-43 -7 -84 0 -40 -4 -79 -7 -85 -4 -6 -76 -19 -161 -28 -131 -14 -154 -19
-158 -35 -5 -22 -22 -24 -22 -3 0 12 -11 16 -47 15 -96 0 -183 6 -183 13 0
112 -1 107 25 107 27 0 32 9 13 28 -9 9 -5 12 20 12 20 0 32 -5 32 -14 0 -17
42 -16 48 2 2 7 -6 13 -20 13 l-23 2 23 4 c18 4 22 11 22 39 0 34 12 42 60 43
30 0 75 14 82 25 4 6 8 21 8 33 0 18 7 23 38 28 20 4 42 8 47 10 27 10 49 -2
58 -30z m-1656 11 c-4 -11 -1 -13 10 -9 10 4 14 2 11 -7 -2 -7 -14 -17 -26
-21 -19 -7 -22 -5 -22 15 0 24 7 36 23 36 5 0 7 -7 4 -14z m2026 -30 c0 -30 4
-31 31 -11 11 8 27 15 35 15 14 0 14 -1 1 -10 -11 -7 -7 -9 15 -7 29 2 30 0
33 -43 2 -25 -1 -63 -6 -85 -7 -38 -10 -40 -52 -46 -29 -4 -48 -2 -52 5 -4 6
-8 43 -8 83 0 39 -4 75 -10 78 -5 3 -10 20 -10 38 0 23 3 28 11 20 6 -6 12
-23 12 -37z m217 34 c0 -11 -42 -31 -49 -24 -2 2 2 10 9 19 14 17 40 20 40 5z
m-1435 -21 c-4 -5 -18 -9 -33 -9 l-27 1 25 13 c25 15 45 12 35 -5z m1132 -41
c-2 -13 -4 -3 -4 22 0 25 2 35 4 23 2 -13 2 -33 0 -45z m-1819 2 c-1 -16 -6
-30 -10 -30 -4 0 -8 14 -8 30 0 17 5 30 10 30 6 0 9 -13 8 -30z m312 6 c0 -3
-4 -8 -10 -11 -5 -3 -10 -1 -10 4 0 6 5 11 10 11 6 0 10 -2 10 -4z m-1602 -20
c22 -8 43 -12 46 -9 3 4 6 4 6 1 0 -3 -11 -13 -23 -21 -23 -15 -25 -14 -50 14
-14 16 -24 29 -22 29 1 0 21 -6 43 -14z m1197 4 c3 -5 2 -10 -4 -10 -5 0 -13
5 -16 10 -3 6 -2 10 4 10 5 0 13 -4 16 -10z m229 -37 c-9 -60 -8 -87 6 -91 5
-2 10 -13 10 -24 0 -26 24 -18 28 10 2 12 7 22 12 22 5 0 7 7 4 15 -5 11 1 15
20 15 14 0 26 -4 26 -10 0 -5 -5 -10 -11 -10 -6 0 -9 -7 -5 -15 8 -21 -3 -45
-20 -45 -8 0 -14 -7 -14 -15 0 -18 -12 -19 -28 -3 -9 9 -12 9 -12 0 0 -7 -7
-12 -15 -12 -10 0 -15 10 -15 29 0 17 -5 33 -11 36 -7 5 -8 29 -4 69 8 66 11
76 26 76 7 0 8 -18 3 -47z m686 28 c5 -11 10 -28 10 -38 0 -41 12 -44 89 -28
109 23 101 31 101 -99 l0 -114 -27 -6 c-39 -8 -260 -36 -284 -36 -17 0 -19 7
-19 78 0 87 -4 96 -43 111 -16 6 -26 15 -23 20 8 12 -20 34 -33 27 -5 -4 -12
-2 -16 4 -3 6 1 13 9 16 9 3 16 14 16 23 0 21 19 41 38 41 10 0 13 -8 9 -27
-6 -31 1 -55 14 -47 5 3 7 9 4 14 -3 4 4 6 14 3 17 -4 19 0 18 28 -2 31 1 34
33 40 63 11 79 9 90 -10z m-743 -13 c-3 -8 -6 -5 -6 6 -1 11 2 17 5 13 3 -3 4
-12 1 -19z m233 2 c0 -5 -5 -10 -11 -10 -5 0 -7 5 -4 10 3 6 8 10 11 10 2 0 4
-4 4 -10z m49 -34 c-3 -3 -11 5 -18 17 -13 21 -12 21 5 5 10 -10 16 -20 13
-22z m864 27 c-7 -2 -19 -2 -25 0 -7 3 -2 5 12 5 14 0 19 -2 13 -5z m824 -15
c-3 -8 -6 -5 -6 6 -1 11 2 17 5 13 3 -3 4 -12 1 -19z m-1994 6 c11 -11 -3 -24
-18 -18 -8 4 -12 10 -9 15 6 11 18 12 27 3z m464 -1 c-4 -3 1 -15 10 -26 13
-14 14 -21 6 -24 -8 -3 -10 -15 -7 -32 8 -37 -7 -45 -35 -20 -18 17 -19 23 -9
42 7 12 11 26 10 31 -5 15 7 36 19 36 7 0 9 -3 6 -7z m1236 -54 c-6 -22 -53
-32 -53 -12 0 9 6 13 15 10 8 -4 17 -2 20 3 4 6 0 10 -7 11 -10 0 -10 2 0 6 6
2 12 12 13 21 0 14 2 13 8 -3 4 -11 6 -27 4 -36z m-1743 -5 c0 -7 4 -14 8 -16
5 -1 12 -16 16 -31 l7 -29 -31 35 c-19 22 -30 45 -30 63 1 28 1 28 15 10 8
-11 15 -25 15 -32z m385 16 c-3 -5 -17 -10 -31 -10 -13 0 -24 5 -24 10 0 6 14
10 31 10 17 0 28 -4 24 -10z m-315 -20 c0 -11 0 -23 1 -27 0 -4 -4 -9 -10 -11
-6 -2 -11 10 -11 27 0 17 5 31 10 31 6 0 10 -9 10 -20z m1737 -2 c-3 -8 -6 -5
-6 6 -1 11 2 17 5 13 3 -3 4 -12 1 -19z m270 -3 c9 -24 -1 -27 -15 -5 -8 13
-8 20 -2 20 6 0 13 -7 17 -15z m-3424 -12 c-7 -2 -19 -2 -25 0 -7 3 -2 5 12 5
14 0 19 -2 13 -5z m-50 -10 c-7 -2 -19 -2 -25 0 -7 3 -2 5 12 5 14 0 19 -2 13
-5z m1729 -43 c-3 -23 -7 -28 -17 -20 -9 7 -15 3 -24 -16 -10 -22 -9 -28 5
-39 11 -7 13 -14 7 -18 -6 -4 -14 0 -17 9 -3 8 -10 12 -16 9 -11 -7 -13 18 -4
64 4 17 10 28 15 26 4 -3 10 -1 14 5 3 5 14 10 24 10 14 0 17 -6 13 -30z
m-254 -10 c-1 -17 -5 -33 -9 -36 -5 -2 -4 -16 1 -29 15 -38 3 -29 -20 15 l-20
39 20 11 c11 6 18 15 15 21 -4 5 -2 9 4 9 5 0 9 -14 9 -30z m557 10 c-11 -5
-27 -9 -35 -9 -13 -1 -13 0 0 9 8 5 24 9 35 9 l20 0 -20 -9z m1105 6 c0 -3 -4
-8 -10 -11 -5 -3 -10 -1 -10 4 0 6 5 11 10 11 6 0 10 -2 10 -4z m-1102 -33
c-10 -2 -28 -2 -40 0 -13 2 -5 4 17 4 22 1 32 -1 23 -4z m-130 -10 c-10 -2
-26 -2 -35 0 -10 3 -2 5 17 5 19 0 27 -2 18 -5z m-791 -9 c-3 -3 -12 -4 -19
-1 -8 3 -5 6 6 6 11 1 17 -2 13 -5z m2430 -61 c-2 -16 -4 -5 -4 22 0 28 2 40
4 28 2 -13 2 -35 0 -50z m-2011 -10 c-3 -21 -6 -53 -6 -70 0 -22 -5 -33 -14
-33 -12 0 -13 12 -9 58 6 70 9 82 24 82 8 0 10 -12 5 -37z m1909 27 c-3 -5
-12 -7 -20 -3 -21 7 -19 13 6 13 11 0 18 -4 14 -10z m-102 -7 c-7 -2 -19 -2
-25 0 -7 3 -2 5 12 5 14 0 19 -2 13 -5z m-1310 -10 c-7 -2 -21 -2 -30 0 -10 3
-4 5 12 5 17 0 24 -2 18 -5z m1397 -35 c0 -4 -9 -12 -21 -18 -15 -9 -18 -15
-10 -24 6 -7 8 -16 4 -19 -3 -4 3 -7 14 -7 11 0 26 -6 32 -14 15 -18 -7 -26
-57 -21 -24 2 -36 -2 -45 -16 -6 -10 -17 -19 -23 -19 -17 0 -9 45 9 48 10 2
15 8 11 13 -3 5 -10 7 -15 4 -5 -4 -9 -1 -9 4 0 6 7 11 15 11 8 0 15 5 15 10
0 6 12 15 27 21 19 7 23 13 15 21 -8 8 -8 17 0 31 10 20 11 20 24 2 8 -10 14
-22 14 -27z m-1720 28 c0 -3 -4 -8 -10 -11 -5 -3 -10 -1 -10 4 0 6 5 11 10 11
6 0 10 -2 10 -4z m203 -3 c-7 -2 -21 -2 -30 0 -10 3 -4 5 12 5 17 0 24 -2 18
-5z m1101 -8 c11 -8 16 -15 12 -15 -4 0 -4 -5 0 -12 5 -7 11 -5 21 7 7 11 13
15 13 11 0 -4 10 0 22 8 12 9 32 16 43 16 18 0 20 -7 22 -90 l2 -89 -25 11
c-29 13 -36 8 -36 -28 0 -24 -3 -26 -34 -21 -38 6 -42 1 -16 -20 16 -13 15
-14 -10 -10 -27 4 -27 3 -30 -57 l-3 -61 -75 -2 c-41 -1 -132 -8 -202 -14
-118 -11 -129 -14 -144 -37 -22 -34 -6 -72 28 -66 13 2 18 2 11 -1 -7 -4 -9
-19 -6 -39 7 -42 -8 -52 -43 -29 l-27 17 12 -23 c7 -12 11 -23 9 -24 -2 -1
-18 -10 -36 -20 -36 -21 -47 -17 -47 16 0 17 -5 21 -21 19 -16 -2 -23 4 -28
24 -9 33 19 65 59 70 16 1 34 9 42 17 12 12 7 13 -34 11 -26 -2 -49 -8 -51
-13 -2 -7 -9 -5 -18 4 -8 8 -21 12 -29 9 -17 -7 -21 21 -6 31 5 3 15 21 21 40
10 29 9 38 -4 51 -9 8 -16 25 -16 37 -1 20 -2 20 -16 -5 -8 -16 -20 -28 -27
-28 -7 -1 1 -12 18 -25 22 -18 27 -27 18 -36 -12 -12 -44 1 -71 28 -15 15
-120 11 -189 -7 -32 -8 -33 -8 -33 25 0 36 -4 38 -71 50 -23 4 -39 3 -44 -5
-5 -7 2 -10 21 -8 15 2 29 -3 31 -9 6 -18 -45 -17 -79 1 -27 14 -28 14 -28 -9
0 -13 -6 -26 -12 -28 -8 -3 -6 -6 5 -6 12 -1 17 -9 17 -30 0 -41 -24 -61 -71
-61 -39 0 -39 0 -39 40 0 41 18 61 50 53 14 -4 16 1 12 26 -4 27 -7 30 -28 25
-20 -5 -23 -3 -18 10 4 10 13 15 21 12 8 -3 11 -1 8 5 -4 5 -16 7 -27 3 -20
-6 -21 -4 -15 41 4 26 7 56 7 66 0 14 7 19 30 19 20 0 28 -4 24 -13 -3 -8 6
-18 21 -25 24 -11 25 -11 14 9 -14 28 3 48 25 30 8 -7 21 -9 27 -5 7 4 18 -1
26 -12 11 -15 16 -16 22 -6 6 10 10 10 20 -2 10 -12 18 -13 37 -4 13 6 24 15
24 20 0 5 5 6 10 3 6 -4 43 -2 83 4 39 6 95 12 122 13 l50 3 1 -45 c2 -67 3
-72 13 -66 4 3 19 -6 31 -19 23 -25 23 -25 4 -40 -19 -15 -19 -15 0 -8 15 5
17 3 11 -8 -5 -8 -5 -11 1 -6 5 5 9 12 10 15 0 4 11 29 24 56 21 46 24 48 36
31 12 -17 14 -12 14 43 0 71 -4 68 92 77 59 6 67 9 70 28 3 19 12 23 73 30 39
5 108 15 155 22 47 7 87 13 90 14 3 0 14 -6 24 -14z m-1409 -5 c3 -5 2 -10 -4
-10 -5 0 -13 5 -16 10 -3 6 -2 10 4 10 5 0 13 -4 16 -10z m1759 -5 c-4 -8 -15
-15 -25 -15 -21 0 -26 16 -6 23 24 10 36 7 31 -8z m-3397 -26 c13 -13 1 -31
-27 -42 -9 -3 -4 -6 13 -6 20 -1 27 -6 27 -21 0 -26 -25 -36 -56 -22 -22 11
-35 42 -16 42 4 0 13 14 20 30 15 33 22 36 39 19z m1823 -14 c-13 -16 -50 -21
-50 -7 0 15 13 22 38 22 21 0 22 -2 12 -15z m1668 -8 c2 -12 -1 -15 -12 -11
-19 7 -22 38 -3 32 6 -3 13 -12 15 -21z m-1832 0 c8 3 14 0 14 -5 0 -11 -38
-27 -46 -19 -2 2 -1 12 3 23 3 10 8 13 10 7 3 -7 11 -9 19 -6z m-521 -57 c94
-24 199 -71 230 -103 12 -12 38 -34 58 -50 20 -15 50 -48 68 -73 29 -42 32
-53 30 -118 -1 -39 3 -95 9 -125 5 -30 9 -55 8 -57 -2 -1 -30 1 -63 6 -33 4
-54 8 -46 9 19 2 -6 31 -26 31 -9 0 -13 6 -10 14 6 14 -19 29 -39 25 -5 -1
-20 2 -34 8 -14 6 -51 14 -83 17 -56 7 -59 6 -83 -21 -26 -31 -29 -39 -14 -48
5 -3 3 -19 -7 -40 -9 -19 -20 -32 -25 -29 -4 3 -8 0 -8 -6 0 -7 -33 -10 -102
-8 l-101 3 -4 30 c-3 16 -11 34 -19 38 -8 4 -14 17 -14 27 0 11 -7 20 -15 20
-8 0 -15 4 -15 8 0 13 -60 28 -180 46 -137 21 -190 20 -242 -3 -24 -11 -56
-23 -73 -27 -27 -6 -28 -7 -10 -14 19 -8 19 -9 -3 -9 -13 -1 -22 -7 -20 -13 1
-7 -5 -27 -15 -44 -9 -17 -13 -34 -10 -38 4 -3 -2 -6 -13 -7 -10 0 -30 -2 -43
-5 -18 -3 -21 -1 -13 8 5 7 13 42 17 78 4 35 11 71 15 80 18 37 31 92 25 109
-3 11 -1 23 6 26 8 6 8 9 0 15 -8 4 1 15 23 31 20 13 36 30 36 36 0 7 18 24
40 38 22 14 40 32 40 40 0 9 12 20 26 25 15 6 39 19 53 29 29 21 117 46 209
61 97 15 346 4 437 -20z m985 -4 c0 -3 -4 -8 -10 -11 -5 -3 -10 -1 -10 4 0 6
5 11 10 11 6 0 10 -2 10 -4z m1360 -66 c0 -27 0 -52 0 -55 0 -3 -3 -4 -7 -2
-5 1 -7 19 -5 40 3 28 -1 42 -15 53 -17 13 -17 13 5 14 20 0 22 -5 22 -50z
m-1780 30 c0 -5 -4 -10 -9 -10 -6 0 -13 5 -16 10 -3 6 1 10 9 10 9 0 16 -4 16
-10z m1760 -40 c0 -10 -6 -20 -14 -23 -23 -9 -15 -45 11 -52 13 -3 23 -13 23
-21 0 -13 -7 -15 -30 -11 -16 4 -43 1 -60 -5 -41 -14 -68 6 -29 21 17 7 19 10
7 10 -10 1 -18 6 -18 12 0 7 10 9 28 5 20 -5 23 -4 12 3 -13 9 -12 12 4 24 10
7 20 24 21 38 1 13 3 30 4 38 2 21 41 -17 41 -39z m-1845 24 c9 -10 14 -25 12
-35 -3 -12 0 -19 9 -19 21 0 17 -26 -8 -42 -32 -22 -17 -48 27 -48 32 0 35 2
22 15 -15 15 -12 50 4 61 5 3 9 18 9 34 0 33 14 40 76 40 l44 0 0 -99 0 -99
-42 -4 c-56 -6 -78 0 -78 22 0 15 -6 16 -40 10 -32 -6 -40 -4 -40 7 0 9 -6 13
-14 10 -11 -5 -17 6 -21 41 -4 26 -10 61 -15 79 -4 17 -5 34 -2 37 11 11 41 6
57 -10z m1912 -10 c-9 -9 -28 6 -21 18 4 6 10 6 17 -1 6 -6 8 -13 4 -17z
m-1867 -4 c0 -5 -4 -10 -10 -10 -5 0 -10 5 -10 10 0 6 5 10 10 10 6 0 10 -4
10 -10z m1520 1 c0 -6 -4 -13 -10 -16 -5 -3 -10 1 -10 9 0 9 5 16 10 16 6 0
10 -4 10 -9z m210 -11 c-12 -22 -25 -26 -36 -9 -7 12 12 29 34 29 10 0 10 -5
2 -20z m130 -10 c0 -5 -2 -10 -4 -10 -3 0 -8 5 -11 10 -3 6 -1 10 4 10 6 0 11
-4 11 -10z m-378 -79 c-4 -36 -7 -39 -38 -43 -35 -4 -46 7 -48 47 -1 26 12 35
54 35 35 0 35 0 32 -39z m38 -40 c0 -12 -20 -25 -27 -18 -7 7 6 27 18 27 5 0
9 -4 9 -9z m-1100 -40 c0 -23 -17 -31 -53 -24 -18 4 -27 12 -27 24 0 15 7 19
40 19 33 0 40 -4 40 -19z m150 -12 c0 -15 -7 -19 -40 -19 -33 0 -40 3 -40 19
0 13 8 21 23 23 36 6 57 -3 57 -23z m105 11 c18 -20 17 -20 -18 -20 -30 0 -37
4 -37 20 0 13 7 20 18 20 11 0 27 -9 37 -20z m-657 -32 c-4 -31 -52 -38 -67
-10 -13 25 -5 32 36 32 30 0 34 -3 31 -22z m138 -26 c-12 -11 -18 7 -10 30 l8
23 4 -23 c2 -13 1 -26 -2 -30z m-36 17 c0 -17 -5 -20 -32 -17 -22 2 -34 9 -36
21 -3 14 4 17 32 17 30 0 36 -4 36 -21z m1745 -10 c-3 -18 -1 -37 2 -43 4 -6
8 -75 8 -153 l2 -143 -76 1 c-42 1 -101 4 -131 7 l-55 7 -1 70 c-1 88 9 119
36 110 15 -5 18 -3 14 8 -3 8 -14 17 -25 20 -12 3 -19 13 -18 29 0 12 3 17 6
11 4 -10 10 -10 26 2 12 8 29 15 39 15 22 0 24 -33 3 -50 -20 -17 -19 -27 5
-33 16 -4 20 0 21 21 1 15 2 43 3 62 1 19 -5 43 -13 53 -13 15 -12 17 7 17 11
0 24 5 27 10 3 6 33 10 65 10 l59 0 -4 -31z m-605 7 c0 -3 -26 -10 -57 -17
-32 -6 -71 -22 -86 -35 -38 -32 -49 -30 -45 9 3 30 5 32 53 38 65 8 135 10
135 5z m287 -18 c-3 -8 -6 -5 -6 6 -1 11 2 17 5 13 3 -3 4 -12 1 -19z m-269
-43 l-4 -35 116 0 c64 0 120 -3 124 -7 4 -4 -3 -16 -16 -26 -16 -13 -19 -20
-10 -24 14 -6 16 -52 2 -73 -6 -10 -10 -11 -10 -2 0 6 -9 12 -19 12 -11 0 -22
-6 -24 -12 -3 -8 -6 -6 -6 5 -1 9 -8 17 -16 17 -16 0 -20 -34 -9 -89 7 -31 24
-43 24 -16 0 8 6 15 14 15 28 0 46 -12 46 -32 0 -10 5 -16 10 -13 6 3 10 2 10
-3 0 -10 -70 -22 -126 -22 -32 0 -33 -1 -24 -26 6 -15 19 -38 30 -52 11 -14
20 -40 20 -60 0 -32 -1 -34 -27 -28 -16 4 -37 7 -48 8 -52 0 -60 7 -80 65 -10
32 -23 63 -27 69 -11 15 32 50 72 59 17 4 33 12 37 18 5 7 17 12 28 12 28 0
32 42 6 66 -11 10 -27 19 -36 19 -8 0 -15 5 -15 10 0 6 5 10 11 10 6 0 8 9 4
20 -5 15 -3 18 9 14 9 -3 16 -10 16 -15 0 -5 7 -9 15 -9 8 0 15 7 15 15 0 21
-41 36 -59 21 -11 -8 -15 -8 -18 2 -3 6 -16 12 -29 12 -14 0 -22 -4 -19 -10 3
-5 2 -10 -3 -10 -6 0 -13 11 -16 25 -4 14 -10 23 -15 21 -5 -3 -14 1 -20 8
-15 18 -71 2 -71 -20 0 -8 -7 -14 -15 -14 -8 0 -15 -2 -15 -4 0 -2 -3 -11 -6
-19 -3 -9 2 -17 13 -20 10 -3 5 -5 -11 -4 -20 1 -31 9 -37 24 -7 19 0 29 49
67 31 25 66 46 77 46 11 0 27 5 35 10 8 5 23 10 34 10 15 0 17 -6 14 -35z
m-3231 -7 c-3 -8 -6 -5 -6 6 -1 11 2 17 5 13 3 -3 4 -12 1 -19z m2410 -160
l-2 -153 -67 -2 c-56 -2 -68 1 -68 13 0 10 6 14 15 10 33 -12 45 4 45 66 0 63
-12 98 -34 98 -19 0 -27 25 -13 39 18 18 17 41 -3 51 -16 8 -18 7 -15 -10 5
-24 -10 -27 -19 -4 -5 14 -9 13 -25 -7 -13 -18 -18 -42 -18 -96 0 -40 4 -73 9
-73 4 0 8 -5 8 -11 0 -5 -6 -7 -12 -3 -10 6 -10 4 0 -7 6 -7 12 -18 12 -24 0
-5 -5 -3 -10 5 -8 12 -10 11 -10 -7 0 -13 6 -23 12 -23 7 0 2 -7 -10 -16 -12
-8 -32 -14 -45 -12 -22 3 -22 5 -19 147 1 102 6 147 15 153 6 5 28 6 47 4 19
-3 64 -1 100 3 123 16 110 33 107 -141z m158 142 c3 -5 2 -10 -4 -10 -5 0 -13
5 -16 10 -3 6 -2 10 4 10 5 0 13 -4 16 -10z m-500 -11 c9 -13 6 -16 -29 -25
-26 -6 -27 -5 -17 15 12 22 36 28 46 10z m-165 -9 c0 -5 -5 -10 -11 -10 -5 0
-7 5 -4 10 3 6 8 10 11 10 2 0 4 -4 4 -10z m1602 -40 c-3 -39 -1 -50 10 -50
10 0 13 -9 10 -34 -2 -18 1 -37 7 -40 7 -4 7 -15 1 -31 -5 -14 -7 -32 -4 -40
4 -9 0 -15 -9 -15 -9 0 -18 -10 -20 -22 -5 -27 1 55 9 125 4 31 2 47 -5 47
-12 0 -15 67 -5 94 10 26 11 19 6 -34z m-1455 7 c6 0 9 -6 6 -14 -6 -16 -20
-17 -27 0 -3 9 -8 8 -18 -4 -8 -10 -28 -17 -50 -17 -34 0 -36 2 -25 19 13 20
27 25 27 9 0 -5 5 -10 10 -10 6 0 10 7 10 16 0 13 6 15 28 9 15 -4 32 -8 39
-8z m422 -4 c-11 -13 -11 -17 -1 -20 20 -7 14 -27 -18 -58 -16 -16 -30 -24
-30 -17 0 6 5 14 10 17 6 4 8 11 4 16 -3 5 0 16 6 24 10 12 10 15 -1 15 -8 0
-6 7 7 19 23 24 42 27 23 4z m233 4 c15 -12 15 -14 -2 -24 -13 -9 -26 -8 -54
5 -20 9 -36 20 -36 24 0 13 73 9 92 -5z m478 3 c0 -5 -4 -10 -9 -10 -5 0 -18
-3 -28 -7 -16 -6 -16 -5 -4 10 15 19 41 23 41 7z m-461 -209 c0 -10 -12 -1
-32 24 -18 21 -58 67 -89 102 -92 100 -66 87 32 -16 50 -52 90 -101 89 -110z
m-2559 185 c0 -2 -9 -6 -20 -9 -11 -3 -20 -1 -20 4 0 5 9 9 20 9 11 0 20 -2
20 -4z m3102 -11 c0 -5 -5 -11 -11 -13 -6 -2 -11 4 -11 13 0 9 5 15 11 13 6
-2 11 -8 11 -13z m-1012 -65 c0 -5 -5 -10 -11 -10 -5 0 -7 5 -4 10 3 6 8 10
11 10 2 0 4 -4 4 -10z m-478 -10 c36 -10 36 -12 34 -55 -2 -30 2 -45 10 -45
11 0 24 -21 24 -41 0 -5 -7 -9 -15 -9 -8 0 -15 -7 -15 -15 0 -8 5 -15 11 -15
6 0 8 -9 3 -22 -4 -13 -6 -53 -5 -90 2 -67 1 -68 -31 -88 -18 -11 -37 -22 -43
-24 -5 -2 -6 -7 -2 -12 10 -10 74 23 81 42 3 8 10 14 15 14 5 0 5 -17 -1 -42
-5 -24 -8 -83 -5 -133 7 -142 -16 -233 -79 -308 -13 -16 -24 -33 -24 -38 0 -5
-18 -40 -41 -78 -47 -79 -132 -166 -239 -244 -85 -63 -100 -76 -117 -103 -12
-18 -12 -18 -8 1 3 11 0 8 -8 -7 -10 -21 -16 -24 -30 -17 -20 12 -63 -14 -73
-44 -4 -12 -12 -16 -24 -12 -24 8 -75 -24 -61 -38 7 -7 19 -4 37 7 25 17 37
17 77 1 13 -5 17 -2 17 14 0 18 3 20 19 11 14 -7 29 -6 54 5 l35 14 -23 -67
c-13 -37 -35 -98 -50 -136 -14 -38 -23 -76 -20 -85 5 -12 8 -13 14 -2 6 10 10
9 14 -4 5 -11 3 -14 -5 -9 -8 5 -9 2 -5 -9 4 -10 10 -24 14 -34 4 -10 3 -14
-5 -9 -11 7 -28 -29 -24 -52 2 -6 -2 -12 -8 -12 -5 0 -10 5 -10 10 0 6 -7 10
-15 10 -8 0 -15 -4 -15 -9 0 -22 -202 27 -270 65 -14 8 -44 24 -67 35 -24 12
-43 25 -43 30 0 5 -5 9 -11 9 -16 0 -177 128 -189 150 -15 27 -15 27 47 29 45
1 68 8 106 31 52 32 105 38 182 20 26 -6 42 -5 46 2 4 5 16 7 28 3 15 -4 19
-3 16 7 -4 9 6 14 31 15 58 3 67 9 52 33 -14 23 -55 44 -103 55 -83 17 -104
24 -148 49 -27 15 -58 29 -69 31 -11 3 -23 7 -27 11 -3 4 2 4 12 1 11 -4 16
-3 12 3 -3 6 -17 10 -31 10 -13 0 -24 5 -24 10 0 6 -6 10 -13 10 -16 0 -97 79
-97 94 0 6 -4 5 -9 -3 -5 -7 -14 -10 -21 -6 -19 12 -60 107 -60 140 0 17 -9
45 -21 64 -24 40 -17 54 11 21 11 -13 20 -19 20 -14 0 5 -24 35 -54 66 -61 66
-83 123 -72 189 9 58 45 161 63 181 13 15 10 23 -38 85 -58 76 -85 129 -93
188 -5 33 -5 36 4 16 31 -72 47 -98 69 -116 14 -11 30 -19 35 -17 4 2 6 -4 3
-12 -4 -9 -3 -17 1 -20 4 -2 8 23 9 57 2 33 7 63 11 66 5 3 14 15 19 26 10 16
15 6 38 -68 52 -170 132 -224 319 -214 100 5 155 23 199 65 39 36 81 99 96
142 6 19 21 44 32 57 14 14 20 30 16 43 -6 25 12 35 46 26 22 -6 44 -47 81
-148 17 -45 32 -65 42 -55 2 2 -3 36 -13 75 -14 59 -15 77 -4 111 14 49 40 55
32 9 0 -5 4 -8 10 -8 6 0 9 -7 5 -15 -10 -26 49 -54 113 -53 42 1 49 3 26 7
-28 6 -29 8 -10 18 11 6 35 14 53 18 17 3 32 11 32 17 0 7 15 9 38 6 24 -4 45
0 57 8 10 8 13 14 7 14 -7 0 -15 8 -19 18 -13 36 -47 75 -77 88 l-31 13 50 1
c28 0 67 -5 87 -10z m1503 -6 c14 -14 14 -19 2 -37 -7 -12 -18 -22 -24 -24
-17 -6 -43 26 -43 53 0 19 5 24 24 24 14 0 32 -7 41 -16z m-2317 -47 c30 -27
28 -55 -4 -68 -15 -5 -29 -7 -32 -4 -3 3 0 5 6 5 18 0 14 61 -5 83 -22 25 1
14 35 -16z m671 4 c14 -10 28 -29 32 -43 7 -28 -7 -41 -60 -53 l-33 -7 21 21
c12 12 21 27 21 34 0 22 -31 57 -51 57 -10 0 -19 5 -19 11 0 15 59 2 89 -20z
m-127 -1 c-12 -12 -22 -27 -22 -35 0 -8 -7 -15 -15 -15 -21 0 -4 33 27 54 31
22 36 20 10 -4z m-972 0 c12 -8 11 -10 -7 -10 -13 0 -23 5 -23 10 0 13 11 13
30 0z m1430 -10 c0 -5 -9 -10 -20 -10 -11 0 -20 5 -20 10 0 6 9 10 20 10 11 0
20 -4 20 -10z m-377 -17 c-7 -2 -19 -2 -25 0 -7 3 -2 5 12 5 14 0 19 -2 13 -5z
m1477 -62 c0 -37 -26 -71 -55 -71 -19 0 -28 9 -40 37 -19 45 -7 77 34 92 21 7
29 5 44 -11 9 -11 17 -32 17 -47z m-1710 34 c0 -8 -2 -15 -4 -15 -2 0 -6 7
-10 15 -3 8 -1 15 4 15 6 0 10 -7 10 -15z m-714 -39 c5 13 64 6 84 -11 24 -19
82 -43 122 -50 24 -5 38 -13 41 -26 4 -14 14 -19 36 -19 17 0 31 4 31 10 0 11
28 9 49 -4 10 -6 12 -5 7 2 -10 17 0 15 19 -4 13 -14 24 -15 67 -6 l50 10 -6
-30 c-9 -44 -55 -104 -101 -130 -35 -20 -53 -23 -155 -23 -99 0 -121 3 -157
22 -49 26 -75 60 -97 126 -18 55 -22 190 -4 147 6 -14 12 -20 14 -14z m1821
-28 c-7 -18 -14 -35 -17 -38 -5 -5 -9 -27 -12 -58 -1 -6 -6 -12 -12 -11 -23 3
-33 -2 -62 -28 -30 -28 -49 -83 -61 -179 -4 -38 -7 -41 -31 -36 -48 8 -72 42
-32 42 20 0 20 1 3 24 -11 14 -21 20 -24 14 -4 -6 -12 -2 -18 11 -7 12 -9 26
-6 31 3 6 1 10 -4 10 -6 0 -11 7 -11 16 0 9 -6 14 -12 11 -8 -3 -13 4 -14 17
-1 11 -4 40 -9 64 l-8 42 132 0 c81 0 131 4 131 10 0 6 -6 10 -12 11 -7 0 -4
4 8 9 11 4 26 25 34 49 11 34 16 39 31 31 15 -9 16 -14 6 -42z m-387 32 c0 -5
-5 -10 -11 -10 -5 0 -7 5 -4 10 3 6 8 10 11 10 2 0 4 -4 4 -10z m1590 -20 c0
-5 -7 -10 -16 -10 -8 0 -12 5 -9 10 3 6 10 10 16 10 5 0 9 -4 9 -10z m40 0 c0
-5 -4 -10 -10 -10 -5 0 -10 5 -10 10 0 6 5 10 10 10 6 0 10 -4 10 -10z m67 -2
c-7 -21 12 -48 34 -48 15 0 19 -5 15 -16 -3 -9 -6 -20 -6 -25 0 -5 -7 -9 -15
-9 -18 0 -20 -20 -2 -21 10 0 10 -2 0 -6 -7 -2 -13 -9 -13 -14 0 -4 6 -6 14
-3 8 3 17 1 20 -4 10 -17 -5 -42 -25 -42 -10 0 -19 -6 -19 -14 0 -10 7 -12 22
-8 17 4 20 2 15 -12 -4 -10 -3 -15 3 -11 16 10 12 -7 -7 -27 -15 -17 -15 -18
0 -18 10 0 17 -4 17 -10 0 -5 -8 -10 -17 -10 -14 0 -15 -2 -4 -9 11 -7 10 -11
-5 -20 -18 -10 -18 -10 -1 -11 10 0 15 -5 12 -10 -4 -6 -11 -8 -16 -5 -5 4 -9
2 -9 -4 0 -5 6 -12 13 -14 6 -3 -6 -6 -28 -7 -54 -2 -139 1 -144 5 -2 2 0 16
3 30 9 34 33 42 52 19 15 -18 15 -18 11 4 -4 16 0 22 11 23 14 0 14 2 2 6 -8
3 -23 13 -33 22 -17 15 -20 14 -33 -4 -13 -17 -14 -13 -14 41 0 75 18 94 90
94 38 0 50 4 50 15 0 9 -8 14 -22 12 -17 -1 -24 4 -26 21 -3 19 -5 20 -18 7
-9 -8 -12 -19 -9 -25 9 -14 -29 -12 -43 2 -7 7 -12 21 -12 33 0 16 10 24 44
34 25 7 50 10 55 6 11 -6 15 7 12 33 -1 6 5 12 14 12 9 0 15 -6 12 -12z
m-1197 -40 c0 -5 -4 -8 -10 -8 -5 0 -10 10 -10 23 0 18 2 19 10 7 5 -8 10 -18
10 -22z m585 -5 c15 -27 17 -37 7 -41 -6 -2 -9 -8 -6 -14 3 -5 -2 -15 -11 -22
-17 -12 -16 -14 6 -29 13 -10 29 -17 35 -17 16 0 38 -56 31 -80 -5 -19 1 -51
18 -92 5 -13 2 -18 -9 -18 -9 0 -16 -4 -16 -10 0 -6 -30 -10 -70 -10 -55 0
-71 3 -79 18 -6 9 -11 11 -11 5 0 -14 -40 -18 -40 -5 -1 4 -5 26 -9 50 -5 23
-5 45 0 48 11 6 37 -7 40 -21 10 -52 17 -58 18 -14 1 38 -2 47 -16 45 -10 0
-19 7 -21 18 -3 15 0 18 17 13 16 -4 21 -1 21 15 0 19 -1 19 -32 -3 -18 -13
-37 -29 -43 -36 -13 -17 -80 3 -176 52 l-69 35 -43 -21 c-77 -39 -94 -56 -107
-106 -7 -26 -14 -56 -17 -65 -4 -15 -16 -18 -79 -18 -41 0 -74 2 -74 5 0 17
54 83 64 79 9 -4 12 14 12 65 0 50 6 80 19 105 22 40 31 44 39 18 4 -11 17
-29 30 -41 24 -22 24 -22 30 -3 13 39 139 53 258 27 77 -16 118 -39 118 -66 0
-29 27 -23 39 9 15 39 59 85 76 78 18 -7 20 10 3 18 -9 3 -7 9 6 20 11 9 15
16 8 16 -6 0 -9 7 -6 15 9 23 18 18 39 -22z m-1278 -35 c-3 -7 -5 -2 -5 12 0
14 2 19 5 13 2 -7 2 -19 0 -25z m1543 -48 c0 -5 -7 -10 -15 -10 -8 0 -15 5
-15 10 0 6 7 10 15 10 8 0 15 -4 15 -10z m147 -12 c-3 -8 -6 -5 -6 6 -1 11 2
17 5 13 3 -3 4 -12 1 -19z m-359 -7 c3 -8 -1 -12 -9 -9 -7 2 -15 10 -17 17 -3
8 1 12 9 9 7 -2 15 -10 17 -17z m189 -21 c12 0 14 -9 11 -40 -2 -23 1 -40 7
-41 5 0 4 -3 -2 -6 -7 -2 -13 -18 -13 -34 0 -25 4 -29 26 -29 24 0 25 -3 19
-27 -9 -36 -8 -36 -44 -28 -51 11 -61 28 -56 97 3 33 10 67 15 73 6 7 10 17 9
21 -1 5 0 16 1 24 1 11 3 11 7 3 2 -7 12 -13 20 -13z m63 -20 c0 -5 -4 -10
-10 -10 -5 0 -10 5 -10 10 0 6 5 10 10 10 6 0 10 -4 10 -10z m47 -32 c-3 -7
-5 -2 -5 12 0 14 2 19 5 13 2 -7 2 -19 0 -25z m-748 8 c18 -21 3 -48 -23 -40
-30 10 -38 27 -19 42 21 15 28 15 42 -2z m178 -52 c32 -32 44 -111 18 -120
-19 -8 -53 30 -61 65 -3 14 -10 38 -14 54 -9 26 -8 27 18 20 15 -3 32 -12 39
-19z m523 6 c0 -13 -5 -18 -14 -14 -8 3 -12 12 -9 20 8 21 23 17 23 -6z
m-1302 -15 c-3 -3 -9 2 -12 12 -6 14 -5 15 5 6 7 -7 10 -15 7 -18z m33 -68
c-13 -13 -15 -31 -2 -23 4 3 6 -7 3 -22 l-5 -27 -9 26 c-9 27 10 96 19 71 3
-8 0 -19 -6 -25z m406 -9 c-3 -7 -5 -2 -5 12 0 14 2 19 5 13 2 -7 2 -19 0 -25z
m910 10 c-3 -8 -6 -5 -6 6 -1 11 2 17 5 13 3 -3 4 -12 1 -19z m-137 -38 c13
-8 13 -10 -2 -10 -9 0 -20 5 -23 10 -8 13 5 13 25 0z m-846 -32 c20 -28 20
-34 2 -41 -10 -4 -14 0 -11 13 2 12 -1 17 -9 14 -8 -3 -11 -15 -8 -29 5 -30
-25 -66 -38 -45 -9 15 -2 40 12 40 5 0 2 8 -8 17 -13 13 -19 14 -22 5 -2 -6
-8 -12 -13 -12 -4 0 -6 7 -3 15 4 9 19 15 35 15 19 0 29 5 29 15 0 22 17 18
34 -7z m566 2 c0 -18 7 -20 70 -20 l70 0 -6 -30 c-4 -19 -2 -30 5 -30 6 0 11
-9 11 -20 0 -11 -5 -20 -11 -20 -5 0 -8 4 -4 9 3 5 1 12 -5 16 -6 4 -10 -5
-10 -19 0 -14 -4 -26 -10 -26 -5 0 -10 11 -10 25 0 14 -8 33 -18 43 -10 10
-16 25 -14 33 4 10 0 9 -15 -3 -13 -13 -22 -15 -30 -7 -7 7 -10 3 -10 -15 0
-15 4 -29 9 -32 6 -4 5 -10 -3 -14 -9 -6 -10 -19 -3 -52 l9 -43 100 -3 c56 -2
104 -8 110 -14 7 -8 5 -9 -7 -5 -29 10 -49 -3 -42 -26 5 -16 3 -19 -10 -14 -9
4 -15 3 -14 -1 2 -12 -14 -42 -22 -42 -5 0 -11 10 -13 23 -4 19 -4 19 -6 -5
-2 -42 -18 -42 -25 1 -3 23 -13 41 -23 45 -15 6 -15 8 -3 17 12 8 9 9 -10 7
-24 -3 -25 -6 -26 -68 0 -36 5 -86 13 -111 l13 -46 71 -7 c39 -3 75 -9 80 -12
5 -3 9 -25 9 -48 0 -42 1 -44 38 -50 20 -3 54 -6 75 -6 l37 0 0 -139 0 -140
-57 6 c-32 3 -68 9 -80 14 -28 10 -66 109 -66 172 0 39 -3 47 -15 42 -12 -4
-13 -3 -2 10 17 20 22 14 31 -38 6 -30 7 -16 6 51 -2 98 -8 112 -54 112 -18 0
-22 -7 -25 -36 l-3 -35 -22 20 c-25 24 -34 27 -28 9 8 -21 -9 -37 -43 -44 -30
-6 -34 -4 -44 24 -8 22 -21 33 -40 37 -28 6 -41 19 -44 42 -2 13 -60 174 -77
213 -5 14 -11 30 -13 37 -5 29 -27 89 -37 101 -13 16 5 36 60 69 24 13 43 28
43 33 0 4 11 8 25 8 14 0 25 -4 25 -9 0 -15 24 -10 50 11 32 25 40 25 40 0z
m407 -2 c-3 -8 -6 -5 -6 6 -1 11 2 17 5 13 3 -3 4 -12 1 -19z m-917 -15 c0 -5
36 -30 79 -57 59 -37 79 -55 79 -70 -2 -70 -31 -303 -40 -320 -21 -39 -36 -48
-59 -36 -11 7 -23 9 -26 6 -3 -3 -19 2 -34 10 -31 16 -32 15 -42 -31 -4 -17
-5 -16 -6 4 0 14 -10 34 -21 46 -18 20 -20 28 -12 78 8 50 7 56 -10 60 -10 3
-18 10 -18 15 0 6 10 8 21 5 19 -5 21 -3 17 21 -3 15 -2 43 2 62 6 24 5 32 -4
27 -6 -3 -6 -1 2 8 20 21 14 30 -15 23 -22 -4 -25 -3 -13 5 10 7 11 11 3 11
-7 0 -13 5 -13 10 0 14 38 12 43 -2 8 -23 19 0 22 46 2 24 6 49 9 55 4 6 4 16
1 21 -3 6 3 10 14 10 12 0 21 -3 21 -7z m-177 -18 c4 -8 2 -17 -3 -20 -6 -4
-10 3 -10 14 0 25 6 27 13 6z m1057 -31 c0 -44 -16 -74 -39 -74 -12 0 -15 -33
-3 -44 4 -4 7 -28 7 -52 0 -33 -3 -43 -13 -39 -8 3 -18 5 -23 5 -6 0 -7 10 -3
23 11 33 12 110 3 123 -6 7 1 11 22 12 35 1 54 12 21 12 -11 0 -24 5 -27 10
-3 6 -15 10 -25 10 -24 0 -33 15 -25 40 5 16 15 20 56 20 l49 0 0 -46z m243
29 c-7 -2 -19 -2 -25 0 -7 3 -2 5 12 5 14 0 19 -2 13 -5z m49 -20 c2 -16 3
-57 2 -93 -1 -36 -3 -75 -3 -87 -1 -21 -3 -22 -27 -11 -15 7 -21 14 -15 16 20
7 11 21 -16 24 -45 5 -40 28 6 28 39 0 41 2 41 30 0 34 -1 35 -38 16 -32 -16
-72 -5 -72 20 0 10 3 15 6 11 4 -3 15 4 24 16 l18 22 31 -23 31 -23 0 29 c0
15 -5 33 -12 40 -9 9 -8 12 4 12 9 0 17 -11 20 -27z m-185 -50 c-2 -16 -4 -5
-4 22 0 28 2 40 4 28 2 -13 2 -35 0 -50z m246 54 c4 3 7 1 7 -5 0 -13 -10 -15
-34 -6 -9 3 -13 10 -10 16 4 5 11 5 18 -1 7 -6 16 -8 19 -4z m7 -37 c0 -5 -2
-10 -4 -10 -3 0 -8 5 -11 10 -3 6 -1 10 4 10 6 0 11 -4 11 -10z m-3 -32 c-9
-6 -9 -8 1 -8 22 0 13 -30 -10 -31 l-23 -2 23 -4 c18 -4 23 -10 20 -31 -2 -21
-9 -28 -30 -30 -28 -3 -28 -3 -28 61 0 35 2 66 5 69 4 3 17 1 30 -6 16 -7 20
-13 12 -18z m-1479 -17 c3 -8 -1 -12 -9 -9 -7 2 -15 10 -17 17 -3 8 1 12 9 9
7 -2 15 -10 17 -17z m52 -1 c0 -5 -7 -10 -15 -10 -8 0 -15 5 -15 10 0 6 7 10
15 10 8 0 15 -4 15 -10z m737 -12 c-3 -8 -6 -5 -6 6 -1 11 2 17 5 13 3 -3 4
-12 1 -19z m330 -15 c-3 -3 -11 -2 -17 2 -9 6 -9 10 1 16 14 8 27 -7 16 -18z
m-99 5 c-6 -18 -28 -21 -28 -4 0 9 7 16 16 16 9 0 14 -5 12 -12z m-1021 -26
c-9 -2 -15 -8 -12 -13 4 -5 -1 -9 -9 -9 -20 0 -20 5 0 24 8 9 21 13 27 9 8 -5
6 -9 -6 -11z m873 14 c0 -3 -4 -8 -10 -11 -5 -3 -10 -1 -10 4 0 6 5 11 10 11
6 0 10 -2 10 -4z m-725 -16 c-4 -6 -1 -18 6 -27 11 -13 10 -17 -4 -28 -9 -7
-17 -18 -17 -26 -1 -10 -3 -9 -10 3 -13 21 -1 56 11 36 7 -10 9 -9 9 3 0 16
-26 34 -42 31 -5 -1 -8 3 -8 8 0 6 14 10 31 10 18 0 28 -4 24 -10z m-88 -36
c-3 -3 -12 -4 -19 -1 -8 3 -5 6 6 6 11 1 17 -2 13 -5z m1253 -6 c0 -4 -9 -8
-20 -8 -11 0 -20 4 -20 9 0 6 9 9 20 8 11 -1 20 -5 20 -9z m30 -9 c0 -5 -4 -9
-10 -9 -5 0 -10 7 -10 16 0 8 5 12 10 9 6 -3 10 -10 10 -16z m-353 -5 c-3 -3
-12 -4 -19 -1 -8 3 -5 6 6 6 11 1 17 -2 13 -5z m-459 -32 c2 -7 -3 -12 -12
-12 -9 0 -16 7 -16 16 0 17 22 14 28 -4z m819 -37 c-23 -26 -47 -27 -47 -3 0
6 3 8 6 5 4 -3 16 5 27 19 13 17 23 22 29 16 7 -7 2 -20 -15 -37z m-810 -27
c-3 -8 -6 -5 -6 6 -1 11 2 17 5 13 3 -3 4 -12 1 -19z m583 -20 l0 -39 -60 3
c-33 2 -60 3 -60 3 -1 0 -3 17 -6 38 l-6 38 66 -2 66 -2 0 -39z m190 -20 c0
-16 -3 -19 -11 -11 -6 6 -8 16 -5 22 11 17 16 13 16 -11z m-750 -58 c9 -6 11
-13 5 -17 -5 -5 -11 -19 -13 -33 -1 -14 -9 -30 -17 -36 -16 -12 -16 -54 -1
-66 6 -4 5 -12 -3 -21 -10 -13 -7 -18 17 -30 19 -9 35 -11 45 -5 9 5 18 4 21
-1 9 -15 34 -140 29 -145 -3 -3 -17 -3 -32 -1 -14 2 -47 7 -73 10 l-48 6 0 48
c0 26 -6 53 -12 60 -11 10 -10 12 1 9 19 -4 27 32 9 43 -7 5 -8 9 -3 9 6 0 11
36 13 82 2 45 5 85 8 90 7 11 36 10 54 -2z m44 -101 c-8 -13 -24 -1 -24 18 0
13 3 13 15 3 8 -7 12 -16 9 -21z m296 -29 c-12 -22 -24 -27 -17 -7 2 6 1 22
-4 33 -11 30 1 38 18 14 10 -15 11 -25 3 -40z m-570 40 c0 -5 -7 -10 -16 -10
-8 0 -12 5 -9 10 3 6 10 10 16 10 5 0 9 -4 9 -10z m-325 -36 c-7 -8 -21 -14
-29 -14 -9 0 -16 -7 -16 -15 0 -8 -7 -15 -15 -15 -20 0 -19 10 3 26 15 12 15
15 2 24 -12 9 -11 10 7 5 12 -3 24 -1 27 4 4 6 13 8 21 5 12 -5 12 -8 0 -20z
m-214 -11 c-12 -20 -14 -14 -5 12 4 9 9 14 11 11 3 -2 0 -13 -6 -23z m1386 -5
c-3 -8 -6 -5 -6 6 -1 11 2 17 5 13 3 -3 4 -12 1 -19z m-570 -30 c-3 -7 -5 -2
-5 12 0 14 2 19 5 13 2 -7 2 -19 0 -25z m-838 -35 c9 -30 6 -43 -15 -85 -32
-62 -42 -58 -13 6 19 45 20 66 2 112 -4 11 -3 15 5 10 6 -4 16 -23 21 -43z
m261 22 c0 -9 -9 -15 -21 -15 -18 0 -19 2 -9 15 7 8 16 15 21 15 5 0 9 -7 9
-15z m-290 -65 c0 -5 -5 -10 -11 -10 -5 0 -7 5 -4 10 3 6 8 10 11 10 2 0 4 -4
4 -10z m-240 -64 c0 -16 -27 -29 -42 -20 -5 3 -1 12 9 20 23 17 33 17 33 0z
m253 -110 c7 -19 -18 -42 -28 -26 -8 13 1 40 14 40 5 0 11 -6 14 -14z m72 -6
c-3 -5 -10 -10 -16 -10 -5 0 -9 5 -9 10 0 6 7 10 16 10 8 0 12 -4 9 -10z
m-248 -36 c3 -8 1 -20 -6 -27 -6 -6 -11 -14 -11 -17 0 -10 119 -9 126 1 3 5
-11 9 -31 9 -29 0 -36 3 -33 18 4 22 56 18 75 -6 15 -21 17 -56 3 -47 -14 9
-40 -13 -40 -32 0 -11 7 -13 23 -10 12 4 29 2 37 -3 13 -9 13 -10 0 -11 -8 -1
-19 -3 -25 -3 -21 -3 -35 -18 -35 -37 0 -10 -4 -19 -9 -19 -5 0 -9 16 -9 36 0
19 -3 38 -6 41 -3 4 -6 -1 -6 -10 0 -9 -6 -17 -12 -17 -9 0 -9 -3 -3 -8 6 -4
8 -20 4 -37 l-7 -30 -1 30 c-1 17 -5 25 -9 19 -4 -7 -16 -13 -27 -15 -13 -3
-21 -13 -23 -31 -2 -18 -10 -27 -27 -30 -23 -5 -41 14 -30 32 5 8 -55 18 -74
12 -6 -2 -11 -10 -11 -18 0 -23 -20 -16 -21 9 -1 12 -1 25 0 30 0 4 -6 7 -14
7 -8 0 -15 -9 -15 -19 0 -11 -4 -23 -10 -26 -5 -3 -10 3 -10 14 0 16 -9 21
-47 26 -101 13 -100 13 -99 50 1 33 3 35 35 35 33 0 34 0 16 -20 -18 -20 -17
-20 13 -20 18 0 32 5 32 10 0 6 7 10 15 10 12 0 13 -4 6 -19 -9 -16 -7 -18 19
-17 34 2 53 16 22 16 -12 0 -22 5 -22 10 0 6 5 10 10 10 6 0 10 7 10 15 0 8 5
15 11 15 5 0 7 -4 4 -10 -3 -5 1 -10 9 -10 9 0 16 5 16 10 0 6 9 10 21 10 11
0 18 4 15 9 -3 4 -17 6 -31 3 -14 -2 -32 1 -40 8 -9 7 -16 11 -18 9 -1 -2 -7
-13 -13 -24 -6 -11 -21 -21 -33 -23 -30 -5 -26 16 4 24 16 4 25 13 25 26 0 18
5 19 73 14 39 -3 92 -8 117 -12 57 -9 44 7 -18 22 l-47 12 53 1 c28 0 52 6 52
11 0 16 20 12 27 -6z m160 -20 c-3 -3 -12 -4 -19 -1 -8 3 -5 6 6 6 11 1 17 -2
13 -5z m223 -9 c0 -8 5 -15 10 -15 6 0 10 -4 10 -8 0 -13 -72 -32 -84 -23 -6
5 -20 11 -31 13 -18 4 -17 6 8 16 16 7 25 16 22 22 -4 6 8 10 29 10 25 0 36
-4 36 -15z m-233 -37 c-3 -7 -5 -2 -5 12 0 14 2 19 5 13 2 -7 2 -19 0 -25z
m923 -8 c0 -5 -4 -10 -10 -10 -5 0 -10 5 -10 10 0 6 5 10 10 10 6 0 10 -4 10
-10z m-40 -20 c0 -5 -2 -10 -4 -10 -3 0 -8 5 -11 10 -3 6 -1 10 4 10 6 0 11
-4 11 -10z m46 -28 c1 -7 0 -8 -2 -3 -3 6 -12 7 -21 4 -11 -4 -14 -3 -9 6 9
14 29 10 32 -7z m-36 -17 c8 -9 22 -12 41 -8 19 3 29 1 29 -6 0 -7 4 -10 10
-6 9 5 19 -26 35 -104 6 -26 4 -32 -6 -29 -8 3 -15 19 -17 36 -2 21 -11 36
-25 44 -12 6 -23 10 -25 9 -3 -3 -79 8 -104 15 -26 7 -22 43 5 54 32 13 43 12
57 -5z m-1307 -62 c-4 -10 -9 -11 -19 -2 -11 9 -14 9 -14 0 0 -7 -5 -9 -11 -5
-14 8 2 20 29 20 12 0 18 -5 15 -13z m1803 -5 c-3 -7 -9 -21 -12 -31 -8 -23
-28 -17 -32 10 -2 14 3 23 15 26 31 8 35 7 29 -5z m-1626 -32 c0 -3 -7 -3 -15
0 -8 4 -15 13 -15 21 0 12 2 12 15 -1 8 -8 15 -17 15 -20z m1068 -17 c-4 -24
0 -30 16 -34 85 -19 117 -24 128 -20 14 5 55 -21 47 -30 -3 -2 -50 3 -105 13
l-99 17 -3 48 c-2 35 0 47 8 42 7 -4 10 -20 8 -36z m112 20 c13 -7 13 -8 0 -9
-13 0 -13 -1 0 -10 10 -6 12 -12 5 -19 -7 -7 -25 -6 -55 3 -34 10 -46 19 -48
36 -3 21 -1 22 40 15 24 -4 50 -11 58 -16z m449 -86 c0 -42 -3 -52 -9 -38 -12
28 -12 95 0 95 6 0 10 -25 9 -57z m-2794 37 c3 -5 1 -10 -4 -10 -6 0 -11 5
-11 10 0 6 2 10 4 10 3 0 8 -4 11 -10z m746 -41 c-5 -13 -10 -19 -10 -12 -1
15 10 45 15 40 3 -2 0 -15 -5 -28z m2300 -2 c19 -38 76 -76 63 -42 -4 8 -1 15
5 15 18 0 13 -28 -9 -50 -21 -21 -50 -27 -50 -10 0 6 -15 17 -32 25 -29 12
-34 12 -45 -2 -10 -12 -9 -23 2 -51 18 -43 18 -42 -1 -42 -19 0 -51 72 -56
125 -2 32 0 40 14 40 9 0 19 3 22 6 4 3 22 6 41 7 26 1 37 -4 46 -21z m-2397
-2 c6 -17 2 -18 -33 -8 -23 6 -23 7 -5 14 28 11 31 11 38 -6z m1619 -102 c24
-6 32 -11 20 -12 -12 0 -33 3 -47 9 -23 8 -26 14 -24 57 l2 48 3 -46 c4 -45 5
-47 46 -56z m-1646 71 c3 -9 13 -14 24 -11 24 6 25 -11 2 -20 -9 -4 -19 -1
-21 5 -2 7 -10 19 -19 27 -8 9 -10 15 -3 15 6 0 13 -7 17 -16z m193 -74 c0 -5
-13 -10 -28 -10 -22 0 -28 5 -30 25 -1 14 3 25 8 25 6 0 10 -6 10 -14 0 -8 5
-18 11 -21 19 -12 22 3 5 27 -9 12 -16 29 -16 38 0 8 9 -2 20 -23 11 -20 20
-41 20 -47z m1578 15 c-1 -24 -5 -42 -9 -39 -5 3 -8 25 -7 49 3 57 16 48 16
-10z m-1788 11 c0 -8 3 -23 6 -33 5 -16 4 -16 -10 1 -18 22 -21 46 -6 46 6 0
10 -6 10 -14z m2190 4 c0 -5 -5 -10 -11 -10 -5 0 -7 5 -4 10 3 6 8 10 11 10 2
0 4 -4 4 -10z m-2123 -22 c-3 -8 -6 -5 -6 6 -1 11 2 17 5 13 3 -3 4 -12 1 -19z
m-127 -22 c-14 -14 -24 0 -16 21 6 15 8 15 16 3 6 -9 5 -19 0 -24z m-912 -1
c-3 -3 -9 2 -12 12 -6 14 -5 15 5 6 7 -7 10 -15 7 -18z m3452 -46 c0 -25 -24
-15 -39 17 -6 14 -8 30 -5 36 9 15 44 -28 44 -53z m-2625 41 c3 -5 1 -10 -4
-10 -6 0 -11 5 -11 10 0 6 2 10 4 10 3 0 8 -4 11 -10z m2654 -37 l0 -48 -15
39 c-11 32 -12 41 -2 48 7 4 14 8 16 8 1 0 2 -21 1 -47z m-2469 27 c0 -5 -4
-10 -10 -10 -5 0 -10 5 -10 10 0 6 5 10 10 10 6 0 10 -4 10 -10z m180 -5 c0
-8 -7 -15 -16 -15 -14 0 -14 3 -4 15 7 8 14 15 16 15 2 0 4 -7 4 -15z m1635 5
c3 -5 2 -10 -4 -10 -5 0 -13 5 -16 10 -3 6 -2 10 4 10 5 0 13 -4 16 -10z
m-2842 -30 c3 -11 1 -18 -4 -14 -5 3 -9 12 -9 20 0 20 7 17 13 -6z m2762 -1
c11 -17 2 -18 -25 -4 -24 14 -24 14 -3 15 12 0 25 -5 28 -11z m-1518 -57 c4
-20 6 -40 5 -44 -1 -5 2 -8 6 -8 10 0 36 -79 29 -87 -3 -2 -8 5 -12 16 -3 12
-11 18 -17 15 -6 -4 -8 1 -3 15 4 15 1 23 -10 27 -10 4 -13 13 -10 25 3 10 2
34 -4 54 -5 19 -5 33 -1 30 5 -3 13 -22 17 -43z m-40 2 c-2 -2 -12 -2 -21 2
-15 6 -15 7 1 20 15 11 19 10 21 -2 2 -9 2 -18 -1 -20z m-125 -6 c-9 -9 -12
-7 -12 12 0 19 3 21 12 12 9 -9 9 -15 0 -24z m35 10 c-3 -8 -6 -5 -6 6 -1 11
2 17 5 13 3 -3 4 -12 1 -19z m23 -58 c5 0 10 4 10 9 0 11 35 20 47 12 14 -9
23 -50 12 -57 -5 -3 -9 0 -9 5 0 6 -18 11 -40 11 -22 0 -40 -4 -40 -10 0 -5 5
-10 10 -10 6 0 10 -4 10 -9 0 -6 -9 -9 -20 -8 -21 1 -24 14 -13 68 6 30 7 31
14 11 5 -12 13 -22 19 -22z m-47 -7 c-9 -22 -23 -14 -23 12 0 21 2 24 14 13 7
-7 11 -19 9 -25z m2386 26 c17 -6 31 -17 31 -25 0 -18 -14 -18 -30 1 -7 8 -19
15 -26 15 -8 0 -14 5 -14 10 0 12 0 12 39 -1z m-54 -9 c3 -5 1 -10 -4 -10 -6
0 -11 5 -11 10 0 6 2 10 4 10 3 0 8 -4 11 -10z m-791 -21 c19 -9 36 -9 70 1
53 15 118 6 110 -14 -3 -9 4 -17 17 -21 l23 -8 -27 -13 c-22 -12 -35 -12 -92
1 -48 12 -90 14 -149 9 -67 -5 -88 -3 -115 11 -41 21 -34 28 32 36 84 10 105
10 131 -2z m-2547 -21 c-3 -8 -6 -5 -6 6 -1 11 2 17 5 13 3 -3 4 -12 1 -19z
m2770 6 c-3 -3 -12 -4 -19 -1 -8 3 -5 6 6 6 11 1 17 -2 13 -5z m-2750 -71 c-3
-10 -5 -4 -5 12 0 17 2 24 5 18 2 -7 2 -21 0 -30z m980 5 c-3 -8 -6 -5 -6 6
-1 11 2 17 5 13 3 -3 4 -12 1 -19z"/>
<path d="M1978 3943 c7 -3 16 -2 19 1 4 3 -2 6 -13 5 -11 0 -14 -3 -6 -6z"/>
<path d="M1760 3745 c-7 -8 -8 -15 -2 -15 5 0 15 7 22 15 7 8 8 15 2 15 -5 0
-15 -7 -22 -15z"/>
<path d="M3180 3150 c0 -13 5 -20 13 -17 6 2 12 10 12 17 0 7 -6 15 -12 18 -8
2 -13 -5 -13 -18z"/>
<path d="M3310 3110 c0 -5 5 -10 11 -10 5 0 7 5 4 10 -3 6 -8 10 -11 10 -2 0
-4 -4 -4 -10z"/>
<path d="M3077 3055 c-5 -11 0 -15 16 -15 12 0 18 4 12 8 -5 4 -13 11 -16 15
-4 4 -9 1 -12 -8z"/>
<path d="M3024 3044 c-6 -2 -8 -18 -6 -35 4 -27 8 -30 35 -27 42 4 48 28 7 28
-27 0 -30 3 -25 20 3 11 5 20 3 19 -2 0 -8 -3 -14 -5z"/>
<path d="M2895 3032 c-5 -4 -10 -19 -10 -34 -1 -24 2 -26 26 -21 18 3 28 0 32
-12 4 -9 11 -13 17 -10 15 9 -5 42 -30 50 -11 3 -20 11 -20 16 0 6 9 7 21 4
15 -5 19 -4 15 4 -8 12 -36 14 -51 3z"/>
<path d="M3707 3173 c-4 -3 -7 -17 -7 -31 0 -14 -8 -31 -17 -39 -10 -8 -13
-12 -6 -9 6 4 16 -1 21 -10 17 -30 31 -6 25 44 -6 52 -7 55 -16 45z"/>
<path d="M3718 3053 c7 -3 16 -2 19 1 4 3 -2 6 -13 5 -11 0 -14 -3 -6 -6z"/>
<path d="M3138 2843 c7 -3 16 -2 19 1 4 3 -2 6 -13 5 -11 0 -14 -3 -6 -6z"/>
<path d="M3402 2810 l-32 -30 59 0 c46 0 59 3 57 15 -3 23 -15 29 -22 11 -10
-25 -27 -19 -22 9 7 33 -2 32 -40 -5z"/>
<path d="M3141 2772 c-1 -7 -5 -10 -11 -7 -5 3 -10 -1 -10 -9 0 -8 5 -18 10
-21 12 -7 24 19 17 37 -4 10 -6 10 -6 0z"/>
<path d="M3240 2770 c0 -5 5 -10 10 -10 6 0 10 5 10 10 0 6 -4 10 -10 10 -5 0
-10 -4 -10 -10z"/>
<path d="M2637 2730 c-3 -13 1 -17 19 -17 29 0 29 -1 5 19 -18 15 -19 15 -24
-2z"/>
<path d="M3397 2725 c-7 -16 8 -29 23 -20 15 9 12 35 -4 35 -8 0 -16 -7 -19
-15z"/>
<path d="M2513 2715 c0 -8 9 -15 19 -15 17 0 18 2 4 15 -8 8 -16 15 -19 15 -2
0 -4 -7 -4 -15z"/>
<path d="M2924 2700 c3 -14 -2 -34 -10 -44 -23 -33 -18 -44 19 -37 24 5 33 13
35 31 2 14 0 21 -4 17 -4 -4 -16 7 -27 25 -15 28 -17 29 -13 8z"/>
<path d="M2322 2693 c-9 -4 -7 -10 8 -23 15 -13 17 -19 8 -23 -7 -3 -1 -6 15
-6 15 -1 27 4 27 9 0 6 -4 10 -10 10 -5 0 -10 5 -10 11 0 6 9 9 20 6 12 -3 33
1 48 9 26 13 25 14 -33 13 -33 0 -66 -3 -73 -6z"/>
<path d="M2644 2691 c3 -4 -6 -13 -19 -19 -28 -13 -33 -32 -10 -32 8 0 15 5
15 10 0 6 8 10 18 10 9 0 24 5 32 10 13 9 13 11 0 20 -18 12 -43 13 -36 1z"/>
<path d="M2490 2654 c-24 -24 -30 -34 -19 -34 9 0 22 7 29 15 7 8 21 15 31 15
25 0 33 17 12 28 -14 8 -26 2 -53 -24z"/>
<path d="M3135 2670 c-3 -5 1 -10 10 -10 9 0 13 5 10 10 -3 6 -8 10 -10 10 -2
0 -7 -4 -10 -10z"/>
<path d="M2413 2655 c-17 -19 -16 -35 2 -35 12 0 35 28 35 44 0 11 -25 5 -37
-9z"/>
<path d="M2250 2590 c0 -5 5 -10 11 -10 5 0 7 5 4 10 -3 6 -8 10 -11 10 -2 0
-4 -4 -4 -10z"/>
<path d="M3125 2590 c-3 -6 -3 -20 1 -33 7 -21 7 -21 15 -2 4 11 8 26 8 33 1
14 -15 16 -24 2z"/>
<path d="M3230 2589 c0 -5 5 -7 10 -4 6 3 10 8 10 11 0 2 -4 4 -10 4 -5 0 -10
-5 -10 -11z"/>
<path d="M2093 2682 c-9 -6 -7 -11 7 -20 17 -11 20 -10 20 8 0 21 -7 25 -27
12z"/>
<path d="M2083 2643 c-15 -5 -17 -23 -4 -23 5 0 11 7 15 15 3 8 4 15 3 14 -1
0 -8 -3 -14 -6z"/>
<path d="M2080 2563 c8 -4 21 -13 28 -22 10 -13 12 -14 10 -1 -4 19 -18 30
-38 29 -13 -1 -13 -1 0 -6z"/>
<path d="M3410 2610 c0 -5 5 -10 11 -10 5 0 7 5 4 10 -3 6 -8 10 -11 10 -2 0
-4 -4 -4 -10z"/>
<path d="M3418 2573 c7 -3 16 -2 19 1 4 3 -2 6 -13 5 -11 0 -14 -3 -6 -6z"/>
<path d="M3760 2474 c0 -8 5 -12 10 -9 6 4 8 11 5 16 -9 14 -15 11 -15 -7z"/>
<path d="M3800 2471 c0 -11 4 -22 9 -25 11 -7 23 22 15 35 -9 16 -24 10 -24
-10z"/>
<path d="M3745 2440 c-3 -5 -1 -10 4 -10 6 0 11 5 11 10 0 6 -2 10 -4 10 -3 0
-8 -4 -11 -10z"/>
<path d="M3628 2293 c7 -3 16 -2 19 1 4 3 -2 6 -13 5 -11 0 -14 -3 -6 -6z"/>
<path d="M3451 2304 c0 -11 3 -14 6 -6 3 7 2 16 -1 19 -3 4 -6 -2 -5 -13z"/>
<path d="M3450 2160 c0 -5 5 -10 11 -10 5 0 7 5 4 10 -3 6 -8 10 -11 10 -2 0
-4 -4 -4 -10z"/>
<path d="M2350 2360 c7 -12 7 -27 2 -37 -10 -20 -5 -43 9 -43 10 0 12 60 3 84
-3 9 -10 16 -15 16 -6 0 -5 -9 1 -20z"/>
<path d="M576 1924 c-8 -21 -8 -21 12 -29 13 -5 14 -3 5 6 -6 6 -9 18 -6 25 3
8 3 14 0 14 -3 0 -8 -7 -11 -16z"/>
<path d="M1505 1840 c10 -11 28 -20 39 -20 17 0 15 4 -12 20 -41 25 -50 25
-27 0z"/>
<path d="M1588 1803 c6 -2 18 -2 25 0 6 3 1 5 -13 5 -14 0 -19 -2 -12 -5z"/>
<path d="M1670 1800 c0 -13 40 -13 60 0 11 7 5 10 -22 10 -21 0 -38 -4 -38
-10z"/>
<path d="M2230 1950 c0 -5 5 -10 10 -10 6 0 10 5 10 10 0 6 -4 10 -10 10 -5 0
-10 -4 -10 -10z"/>
<path d="M2350 1949 c0 -5 5 -7 10 -4 6 3 10 8 10 11 0 2 -4 4 -10 4 -5 0 -10
-5 -10 -11z"/>
<path d="M3725 1871 c-41 -6 -60 -33 -30 -44 8 -4 15 -2 15 3 0 5 7 7 15 4 9
-4 15 0 15 7 0 11 3 11 10 -1 5 -8 10 -13 11 -10 1 8 6 50 5 49 -1 -1 -19 -5
-41 -8z"/>
<path d="M3116 1941 c-3 -5 0 -14 8 -20 11 -9 15 -7 19 9 5 20 -16 29 -27 11z"/>
<path d="M3210 1150 c0 -5 5 -10 11 -10 5 0 7 5 4 10 -3 6 -8 10 -11 10 -2 0
-4 -4 -4 -10z"/>
<path d="M3363 976 c14 -14 21 -16 30 -7 8 8 8 11 0 11 -6 0 -20 3 -30 7 -17
7 -17 6 0 -11z"/>
<path d="M3436 952 c-3 -5 -21 -7 -40 -6 -20 2 -36 -1 -36 -5 0 -22 32 -81 40
-76 6 3 10 1 10 -4 0 -6 10 -11 22 -11 19 0 20 1 6 18 -21 22 -7 62 22 62 24
0 27 15 4 24 -20 8 -22 8 -28 -2z"/>
<path d="M3461 1294 c0 -11 3 -14 6 -6 3 7 2 16 -1 19 -3 4 -6 -2 -5 -13z"/>
<path d="M1824 675 c-9 -22 1 -29 15 -11 8 10 9 16 1 21 -5 3 -13 -1 -16 -10z"/>
<path d="M1870 665 c0 -8 5 -15 10 -15 6 0 10 7 10 15 0 8 -4 15 -10 15 -5 0
-10 -7 -10 -15z"/>
<path d="M1925 670 c-11 -5 -14 -9 -7 -9 7 -1 10 -5 7 -11 -9 -14 9 -12 23 2
10 10 15 10 21 0 7 -11 9 -11 14 1 9 24 -22 33 -58 17z"/>
<path d="M1820 605 c0 -9 5 -15 11 -13 6 2 11 8 11 13 0 5 -5 11 -11 13 -6 2
-11 -4 -11 -13z"/>
<path d="M1868 613 c7 -3 16 -2 19 1 4 3 -2 6 -13 5 -11 0 -14 -3 -6 -6z"/>
<path d="M1910 605 c0 -16 9 -19 34 -9 20 8 11 24 -15 24 -10 0 -19 -7 -19
-15z"/>
<path d="M1897 559 c7 -7 15 -10 18 -7 3 3 -2 9 -12 12 -14 6 -15 5 -6 -5z"/>
<path d="M3080 130 c0 -5 7 -10 16 -10 8 0 12 5 9 10 -3 6 -10 10 -16 10 -5 0
-9 -4 -9 -10z"/>
<path d="M2910 120 c0 -5 5 -10 10 -10 6 0 10 5 10 10 0 6 -4 10 -10 10 -5 0
-10 -4 -10 -10z"/>
<path d="M3128 3993 c6 -2 18 -2 25 0 6 3 1 5 -13 5 -14 0 -19 -2 -12 -5z"/>
<path d="M3267 3986 c-4 -9 -2 -28 3 -42 14 -36 13 -44 -8 -44 -10 0 -24 -6
-31 -12 -11 -10 -14 -10 -18 0 -3 6 -9 12 -14 12 -6 0 -7 -4 -4 -10 3 -5 2
-10 -3 -10 -6 0 -8 -9 -5 -20 6 -24 19 -25 39 -5 17 17 44 20 44 6 0 -5 -9
-13 -20 -16 -11 -4 -18 -11 -15 -16 8 -12 92 -12 100 1 3 6 -1 10 -10 10 -24
0 -12 24 13 28 16 2 20 -1 16 -11 -8 -21 10 -29 38 -18 44 17 52 1 51 -98 -1
-50 3 -91 8 -91 9 0 10 5 12 140 l2 85 31 3 c18 2 40 12 50 23 18 20 50 27 38
8 -5 -9 9 -10 55 -5 50 6 61 4 61 -8 0 -11 8 -14 33 -10 50 7 82 12 87 14 3 1
12 3 20 4 8 1 36 5 63 10 47 8 47 9 47 47 0 22 -5 39 -11 39 -7 0 -9 -11 -6
-29 5 -24 2 -30 -16 -35 -12 -3 -31 -3 -42 0 -11 3 -38 -1 -60 -9 -22 -7 -51
-11 -65 -7 -20 5 -25 12 -25 40 0 32 -3 35 -32 37 -27 2 -33 -1 -33 -18 0 -11
-4 -18 -10 -14 -5 3 -7 12 -3 20 4 12 -9 15 -76 15 -80 0 -81 0 -81 -25 0 -14
-5 -25 -11 -25 -5 0 -7 5 -4 10 16 25 -16 36 -108 39 -78 2 -95 0 -100 -13z
m165 -41 c-2 -15 0 -25 7 -25 6 0 11 -4 11 -10 0 -12 -10 -13 -28 -2 -8 6 -10
19 -6 40 4 17 10 30 14 27 4 -2 5 -16 2 -30z m-85 19 c-3 -3 -12 -4 -19 -1 -8
3 -5 6 6 6 11 1 17 -2 13 -5z m348 -4 c-3 -5 -11 -10 -16 -10 -6 0 -7 5 -4 10
3 6 11 10 16 10 6 0 7 -4 4 -10z m0 -30 c-3 -5 -21 -10 -38 -9 -31 1 -31 1 -7
9 36 11 52 11 45 0z m-204 -33 c-13 -13 -26 -3 -16 12 3 6 11 8 17 5 6 -4 6
-10 -1 -17z m-36 -17 c-3 -5 -25 -9 -48 -9 l-42 2 35 7 c52 11 62 11 55 0z"/>
<path d="M3740 3965 c0 -19 5 -35 10 -35 6 0 10 8 10 18 0 13 2 14 9 3 7 -11
9 -11 14 0 4 10 6 10 6 2 1 -9 14 -11 49 -6 53 7 72 18 72 42 -1 14 -2 14 -11
-1 -12 -22 -35 -23 -43 -3 -4 11 -21 15 -61 15 l-55 0 0 -35z"/>
<path d="M2754 3975 c3 -8 2 -15 -2 -15 -4 0 -7 -32 -7 -70 0 -39 3 -70 8 -70
4 0 7 18 7 40 0 24 6 42 15 47 12 7 13 15 3 46 -6 20 -16 37 -21 37 -5 0 -7
-7 -3 -15z"/>
<path d="M290 3949 c0 -24 23 -21 28 4 2 10 -3 17 -12 17 -10 0 -16 -9 -16
-21z"/>
<path d="M2915 3920 c3 -5 8 -10 11 -10 2 0 4 5 4 10 0 6 -5 10 -11 10 -5 0
-7 -4 -4 -10z"/>
<path d="M2995 3899 c-11 -17 1 -21 15 -4 8 9 8 15 2 15 -6 0 -14 -5 -17 -11z"/>
<path d="M3133 3882 c-8 -5 -9 -13 -3 -22 5 -9 5 -19 -2 -27 -6 -7 -7 -13 -2
-13 20 0 37 19 39 44 3 26 -9 33 -32 18z"/>
<path d="M3568 3869 c-76 -33 -73 -29 -76 -112 -2 -42 -2 -77 0 -77 12 0 162
31 168 35 4 2 5 16 3 30 -7 33 5 81 17 69 11 -11 13 -52 7 -109 -3 -22 -1 -49
4 -60 6 -17 8 -17 8 -2 1 12 10 17 29 18 15 0 36 3 47 5 21 5 71 12 92 13 7 1
10 7 7 15 -6 17 -58 12 -113 -10 -58 -24 -63 -20 -60 39 4 92 1 117 -16 111
-11 -5 -15 1 -15 19 0 23 -3 24 -44 23 -24 0 -50 -4 -58 -7z m8 -86 c-10 -10
-19 5 -10 18 6 11 8 11 12 0 2 -7 1 -15 -2 -18z m-1 -23 c3 -6 -1 -7 -9 -4
-18 7 -21 14 -7 14 6 0 13 -4 16 -10z m-15 -50 c0 -5 -4 -10 -10 -10 -5 0 -10
5 -10 10 0 6 5 10 10 10 6 0 10 -4 10 -10z"/>
<path d="M3873 3864 c-8 -21 -1 -25 20 -9 15 11 16 13 2 19 -9 3 -18 -1 -22
-10z"/>
<path d="M3800 3861 c0 -4 -11 -6 -24 -4 -30 6 -35 -2 -37 -68 -2 -78 0 -91
11 -84 6 4 8 11 5 16 -4 5 -2 9 4 9 5 0 11 12 13 27 2 17 12 32 28 40 24 12
59 51 60 66 0 4 -13 7 -30 7 -16 0 -30 -4 -30 -9z"/>
<path d="M3890 3830 c0 -5 5 -10 10 -10 6 0 10 5 10 10 0 6 -4 10 -10 10 -5 0
-10 -4 -10 -10z"/>
<path d="M2710 3810 c0 -5 5 -10 10 -10 6 0 10 5 10 10 0 6 -4 10 -10 10 -5 0
-10 -4 -10 -10z"/>
<path d="M3334 3809 c-50 -12 -62 -32 -67 -117 l-4 -63 38 5 c22 3 57 9 79 12
22 3 40 9 40 12 1 4 3 42 6 85 l5 77 -28 -1 c-15 -1 -46 -5 -69 -10z m46 -43
c0 -3 -4 -8 -10 -11 -5 -3 -10 -1 -10 4 0 6 5 11 10 11 6 0 10 -2 10 -4z m-30
-61 c-7 -9 -15 -13 -19 -10 -3 3 1 10 9 15 21 14 24 12 10 -5z"/>
<path d="M3140 3785 c-26 -27 -21 -47 5 -21 24 24 49 21 42 -5 -4 -15 -3 -19
4 -12 15 15 7 57 -11 61 -9 1 -27 -9 -40 -23z"/>
<path d="M3987 3783 c-9 -34 -7 -190 2 -214 7 -17 10 11 10 104 1 121 -2 148
-12 110z"/>
<path d="M2965 3780 c3 -5 16 -10 28 -9 21 0 21 1 2 9 -28 12 -37 12 -30 0z"/>
<path d="M2841 3771 c-7 -5 -10 -14 -7 -20 11 -17 23 -13 29 9 6 22 0 25 -22
11z"/>
<path d="M3795 3772 c-2 -3 0 -12 5 -22 5 -10 6 -20 3 -24 -3 -3 4 -6 16 -6
17 0 41 31 41 54 0 5 -60 3 -65 -2z"/>
<path d="M2684 3748 c-6 -10 22 -9 56 2 22 7 20 8 -13 7 -21 0 -40 -4 -43 -9z"/>
<path d="M2875 3730 c-3 -5 -1 -10 4 -10 6 0 11 5 11 10 0 6 -2 10 -4 10 -3 0
-8 -4 -11 -10z"/>
<path d="M1111 3688 c-43 -7 -59 -13 -50 -19 10 -6 10 -9 2 -9 -9 0 -13 -20
-13 -64 0 -58 2 -64 19 -61 23 4 60 -20 48 -31 -4 -5 -17 -3 -27 4 -12 7 -20
8 -20 2 0 -5 -9 -10 -20 -10 -11 0 -20 -4 -20 -10 0 -5 -5 -10 -11 -10 -5 0
-7 5 -4 10 3 6 -1 10 -9 10 -10 0 -14 -10 -14 -30 1 -26 4 -29 21 -24 19 6 19
6 1 -19 -11 -14 -27 -30 -38 -34 -17 -8 -17 -10 -2 -22 14 -12 16 -12 10 3 -5
14 -2 16 20 10 18 -4 26 -2 27 7 4 59 6 79 10 83 3 3 38 10 79 17 41 6 79 15
85 20 14 13 25 11 25 -5 0 -14 57 -62 64 -55 2 2 7 43 11 90 l6 85 -43 35
c-47 38 -62 41 -157 27z m87 -20 c-5 -32 -50 -44 -84 -22 l-26 18 43 12 c65
17 71 17 67 -8z m58 -64 c-3 -9 -6 -18 -6 -20 0 -2 -4 -4 -9 -4 -5 0 -7 9 -4
20 3 11 10 20 15 20 6 0 7 -7 4 -16z m-109 -21 c16 -21 8 -30 -12 -13 -10 8
-15 9 -15 1 0 -6 -11 -11 -25 -11 -20 0 -25 5 -25 26 0 25 2 26 33 20 17 -3
38 -14 44 -23z m142 -17 c1 -6 -5 -1 -13 9 -8 11 -12 24 -8 29 5 9 20 -17 21
-38z m-25 -52 c3 -8 2 -12 -4 -9 -6 3 -10 10 -10 16 0 14 7 11 14 -7z"/>
<path d="M1480 3690 c0 -5 5 -10 10 -10 6 0 10 5 10 10 0 6 -4 10 -10 10 -5 0
-10 -4 -10 -10z"/>
<path d="M2989 3683 c-13 -17 -13 -17 6 -3 11 8 22 16 24 17 2 2 0 3 -6 3 -6
0 -17 -8 -24 -17z"/>
<path d="M3903 3693 c9 -2 23 -2 30 0 6 3 -1 5 -18 5 -16 0 -22 -2 -12 -5z"/>
<path d="M3540 3673 c-57 -7 -61 -24 -5 -19 28 2 60 4 73 5 13 1 20 6 17 11
-6 10 -19 10 -85 3z"/>
<path d="M281 3666 c10 -9 79 -14 79 -5 0 5 -19 9 -42 9 -23 0 -39 -2 -37 -4z"/>
<path d="M3227 3646 c-4 -11 -13 -12 -46 -3 -43 12 -71 1 -57 -22 9 -14 36
-14 36 -1 0 6 -5 10 -12 10 -6 0 -9 3 -5 6 3 3 15 3 27 -1 15 -5 19 -12 15
-25 -5 -16 1 -19 47 -24 53 -6 74 -5 93 5 6 3 34 6 63 8 l54 2 -2 -53 c-4 -88
-1 -138 9 -138 5 0 7 8 4 19 -3 10 0 22 6 25 8 5 8 13 0 28 -7 14 -9 46 -5 90
4 50 3 67 -5 62 -6 -3 -37 -8 -68 -10 -83 -5 -101 -8 -101 -16 0 -5 -7 -8 -15
-8 -10 0 -15 10 -15 30 0 31 -14 41 -23 16z"/>
<path d="M308 3643 c7 -3 16 -2 19 1 4 3 -2 6 -13 5 -11 0 -14 -3 -6 -6z"/>
<path d="M3787 3626 c-47 -15 -57 -29 -57 -87 0 -34 5 -49 16 -53 24 -9 31 -7
38 10 5 12 1 14 -16 8 -21 -6 -21 -6 -5 10 18 19 37 14 37 -10 0 -8 5 -14 10
-14 6 0 10 7 10 16 0 13 3 14 14 5 11 -9 15 -6 18 13 4 21 0 25 -26 29 -17 2
-33 1 -34 -4 -2 -5 -8 -7 -12 -4 -16 10 1 33 20 28 14 -4 21 2 26 21 3 14 14
31 23 36 14 8 13 9 -4 9 -11 -1 -37 -6 -58 -13z"/>
<path d="M3042 3590 c0 -14 2 -19 5 -12 2 6 2 18 0 25 -3 6 -5 1 -5 -13z"/>
<path d="M3887 3603 c-4 -3 -7 -13 -7 -22 1 -13 3 -13 11 2 11 19 8 33 -4 20z"/>
<path d="M3119 3589 c-10 -6 -7 -9 14 -9 29 0 35 5 14 13 -8 3 -20 1 -28 -4z"/>
<path d="M2973 3573 c9 -2 23 -2 30 0 6 3 -1 5 -18 5 -16 0 -22 -2 -12 -5z"/>
<path d="M3335 3569 c-41 -12 -75 -73 -75 -134 l0 -47 51 7 c108 15 104 11
107 103 l3 82 -28 -1 c-15 0 -41 -5 -58 -10z m5 -109 c0 -5 -4 -10 -10 -10 -5
0 -10 5 -10 10 0 6 5 10 10 10 6 0 10 -4 10 -10z"/>
<path d="M3230 3548 c0 -19 2 -20 10 -8 13 19 13 30 0 30 -5 0 -10 -10 -10
-22z"/>
<path d="M3136 3537 c-14 -13 -23 -26 -20 -30 12 -12 24 -8 24 7 0 18 27 29
36 14 4 -7 9 -6 15 3 5 8 3 17 -4 21 -18 11 -21 10 -51 -15z"/>
<path d="M2867 3530 c-16 -19 -16 -20 3 -20 13 0 20 7 20 20 0 11 -1 20 -3 20
-1 0 -10 -9 -20 -20z"/>
<path d="M916 3501 c-6 -9 6 -21 34 -36 12 -6 13 -5 2 6 -10 11 -8 16 10 26
22 12 22 12 -9 13 -17 0 -34 -4 -37 -9z"/>
<path d="M2803 3503 c9 -2 23 -2 30 0 6 3 -1 5 -18 5 -16 0 -22 -2 -12 -5z"/>
<path d="M2980 3485 c-7 -8 -8 -15 -2 -15 5 0 15 7 22 15 7 8 8 15 2 15 -5 0
-15 -7 -22 -15z"/>
<path d="M887 3399 c7 -7 15 -10 18 -7 3 3 -2 9 -12 12 -14 6 -15 5 -6 -5z"/>
<path d="M3115 3391 c-3 -6 4 -15 15 -21 13 -7 20 -7 20 0 0 5 -6 10 -12 10
-9 0 -8 4 2 10 13 8 13 10 -2 10 -9 0 -19 -4 -23 -9z"/>
<path d="M3180 3380 c0 -5 7 -10 16 -10 8 0 12 5 9 10 -3 6 -10 10 -16 10 -5
0 -9 -4 -9 -10z"/>
<path d="M1460 3370 c0 -5 5 -10 10 -10 6 0 10 5 10 10 0 6 -4 10 -10 10 -5 0
-10 -4 -10 -10z"/>
<path d="M2800 3370 c0 -12 17 -12 45 0 17 7 15 9 -12 9 -18 1 -33 -3 -33 -9z"/>
<path d="M2871 3364 c0 -11 3 -14 6 -6 3 7 2 16 -1 19 -3 4 -6 -2 -5 -13z"/>
<path d="M350 3361 c0 -6 5 -13 10 -16 6 -3 10 1 10 9 0 9 -4 16 -10 16 -5 0
-10 -4 -10 -9z"/>
<path d="M3907 2470 c3 -11 9 -20 14 -20 5 0 9 9 9 20 0 11 -6 20 -14 20 -9 0
-12 -7 -9 -20z"/>
<path d="M3966 2428 c4 -13 10 -25 14 -28 5 -3 10 -19 13 -35 3 -23 4 -19 6
16 1 42 -11 69 -32 69 -4 0 -5 -10 -1 -22z"/>
<path d="M3900 2081 c0 -25 21 -61 36 -61 10 0 14 -6 11 -14 -3 -7 -1 -18 5
-24 7 -7 11 -70 12 -164 1 -117 4 -152 14 -150 6 1 12 -7 12 -18 0 -23 -7 -24
-46 -10 -17 7 -31 7 -37 1 -9 -9 48 -31 80 -31 12 0 12 175 0 250 -3 19 -2 51
2 71 5 21 5 43 0 50 -4 8 -3 19 3 26 6 8 9 15 7 16 -2 2 -21 17 -42 35 -38 32
-57 40 -57 23z"/>
<path d="M1780 21 c0 -5 5 -13 10 -16 6 -3 10 -2 10 4 0 5 -4 13 -10 16 -5 3
-10 2 -10 -4z"/>
</g>
</svg>
